<svg width="15" height="14" viewBox="0 0 15 14" fill="none" xmlns="http://www.w3.org/2000/svg">
<g id="fi_174855" clip-path="url(#clip0_400_2718)">
<g id="Group">
<path id="Vector" d="M10.3293 0H4.67068C2.37096 0 0.5 1.87096 0.5 4.17068V9.82932C0.5 12.129 2.37096 14 4.67068 14H10.3293C12.629 14 14.5 12.129 14.5 9.82932V4.17068C14.5 1.87096 12.629 0 10.3293 0ZM13.0916 9.82932C13.0916 11.3549 11.8549 12.5916 10.3293 12.5916H4.67068C3.14513 12.5916 1.9084 11.3549 1.9084 9.82932V4.17068C1.9084 2.6451 3.14513 1.4084 4.67068 1.4084H10.3293C11.8549 1.4084 13.0916 2.6451 13.0916 4.17068V9.82932Z" fill="url(#paint0_linear_400_2718)"/>
<path id="Vector_2" d="M7.4998 3.37915C5.50324 3.37915 3.87891 5.00348 3.87891 7.00002C3.87891 8.99656 5.50324 10.6209 7.4998 10.6209C9.49637 10.6209 11.1207 8.99659 11.1207 7.00002C11.1207 5.00346 9.49637 3.37915 7.4998 3.37915ZM7.4998 9.21255C6.27787 9.21255 5.28731 8.22199 5.28731 7.00005C5.28731 5.77811 6.27789 4.78755 7.4998 4.78755C8.72174 4.78755 9.7123 5.77811 9.7123 7.00005C9.7123 8.22196 8.72172 9.21255 7.4998 9.21255Z" fill="url(#paint1_linear_400_2718)"/>
<path id="Vector_3" d="M11.1294 4.27398C11.6085 4.27398 11.997 3.88552 11.997 3.40634C11.997 2.92715 11.6085 2.5387 11.1294 2.5387C10.6502 2.5387 10.2617 2.92715 10.2617 3.40634C10.2617 3.88552 10.6502 4.27398 11.1294 4.27398Z" fill="url(#paint2_linear_400_2718)"/>
</g>
</g>
<defs>
<linearGradient id="paint0_linear_400_2718" x1="7.5" y1="13.9592" x2="7.5" y2="0.10874" gradientUnits="userSpaceOnUse">
<stop stop-color="#E09B3D"/>
<stop offset="0.3" stop-color="#C74C4D"/>
<stop offset="0.6" stop-color="#C21975"/>
<stop offset="1" stop-color="#7024C4"/>
</linearGradient>
<linearGradient id="paint1_linear_400_2718" x1="7.4998" y1="13.9593" x2="7.4998" y2="0.108789" gradientUnits="userSpaceOnUse">
<stop stop-color="#E09B3D"/>
<stop offset="0.3" stop-color="#C74C4D"/>
<stop offset="0.6" stop-color="#C21975"/>
<stop offset="1" stop-color="#7024C4"/>
</linearGradient>
<linearGradient id="paint2_linear_400_2718" x1="11.1294" y1="13.9593" x2="11.1294" y2="0.108793" gradientUnits="userSpaceOnUse">
<stop stop-color="#E09B3D"/>
<stop offset="0.3" stop-color="#C74C4D"/>
<stop offset="0.6" stop-color="#C21975"/>
<stop offset="1" stop-color="#7024C4"/>
</linearGradient>
<clipPath id="clip0_400_2718">
<rect width="14" height="14" fill="white" transform="translate(0.5)"/>
</clipPath>
</defs>
</svg>
