<svg width="14" height="14" viewBox="0 0 14 14" fill="none" xmlns="http://www.w3.org/2000/svg">
<g id="social-logos" clip-path="url(#clip0_204_1712)">
<g id="Vector">
<path d="M13.9863 4.11604C13.9535 3.37216 13.8332 2.86076 13.6609 2.41762C13.4831 1.94723 13.2096 1.5261 12.8513 1.17601C12.5012 0.820473 12.0773 0.544204 11.6124 0.369213C11.1667 0.196892 10.6579 0.0765988 9.91404 0.0438013C9.16461 0.00822609 8.9267 0 7.02593 0C5.12517 0 4.88726 0.00822608 4.14061 0.0410236C3.39673 0.0738212 2.88532 0.194221 2.44229 0.366435C1.9718 0.544204 1.55067 0.817695 1.20058 1.17601C0.845039 1.5261 0.568878 1.95001 0.393779 2.41495C0.221459 2.86076 0.101165 3.36939 0.0683679 4.11326C0.0327927 4.86269 0.0245667 5.10061 0.0245667 7.00137C0.0245667 8.90213 0.0327927 9.14005 0.0655903 9.8867C0.0983878 10.6306 0.218788 11.142 0.391109 11.5851C0.568878 12.0555 0.845039 12.4766 1.20058 12.8267C1.55067 13.1823 1.97458 13.4585 2.43951 13.6335C2.88532 13.8058 3.39395 13.9261 4.13793 13.9589C4.88448 13.9918 5.1225 14 7.02326 14C8.92403 14 9.16194 13.9918 9.90859 13.9589C10.6525 13.9261 11.1639 13.8058 11.6069 13.6335C12.5478 13.2698 13.2917 12.5259 13.6554 11.5851C13.8276 11.1393 13.948 10.6306 13.9808 9.8867C14.0136 9.14005 14.0219 8.90213 14.0219 7.00137C14.0219 5.10061 14.0191 4.86269 13.9863 4.11604ZM12.7255 9.832C12.6954 10.5157 12.5806 10.8849 12.4849 11.1311C12.2496 11.741 11.7656 12.225 11.1556 12.4603C10.9095 12.556 10.5376 12.6709 9.85657 12.7009C9.11814 12.7338 8.89668 12.7419 7.02871 12.7419C5.16075 12.7419 4.93651 12.7338 4.20075 12.7009C3.51702 12.6709 3.14781 12.556 2.90167 12.4603C2.59816 12.3481 2.32189 12.1703 2.09765 11.9379C1.86518 11.7109 1.68741 11.4374 1.57524 11.1339C1.47952 10.8877 1.36467 10.5157 1.33465 9.83478C1.30175 9.09635 1.29363 8.87478 1.29363 7.00682C1.29363 5.13885 1.30175 4.91461 1.33465 4.17896C1.36467 3.49524 1.47952 3.12602 1.57524 2.87988C1.68741 2.57626 1.86518 2.3001 2.10043 2.07575C2.32734 1.84329 2.60083 1.66552 2.90445 1.55345C3.15059 1.45773 3.52258 1.34288 4.20353 1.31276C4.94196 1.27996 5.16353 1.27173 7.03138 1.27173C8.90213 1.27173 9.12359 1.27996 9.85934 1.31276C10.5431 1.34288 10.9123 1.45773 11.1584 1.55345C11.4619 1.66552 11.7382 1.84329 11.9624 2.07575C12.1949 2.30277 12.3727 2.57626 12.4849 2.87988C12.5806 3.12602 12.6954 3.49791 12.7255 4.17896C12.7583 4.91739 12.7666 5.13885 12.7666 7.00682C12.7666 8.87478 12.7583 9.09357 12.7255 9.832Z" fill="white"/>
<path d="M7.02593 3.40496C5.04045 3.40496 3.42953 5.01578 3.42953 7.00137C3.42953 8.98695 5.04045 10.5978 7.02593 10.5978C9.01152 10.5978 10.6223 8.98695 10.6223 7.00137C10.6223 5.01578 9.01152 3.40496 7.02593 3.40496ZM7.02593 9.33427C5.73786 9.33427 4.69304 8.28955 4.69304 7.00137C4.69304 5.71318 5.73786 4.66847 7.02593 4.66847C8.31412 4.66847 9.35883 5.71318 9.35883 7.00137C9.35883 8.28955 8.31412 9.33427 7.02593 9.33427Z" fill="white"/>
<path d="M11.6042 3.26277C11.6042 3.72642 11.2283 4.10236 10.7645 4.10236C10.3009 4.10236 9.92494 3.72642 9.92494 3.26277C9.92494 2.79901 10.3009 2.42317 10.7645 2.42317C11.2283 2.42317 11.6042 2.79901 11.6042 3.26277Z" fill="white"/>
</g>
</g>
<defs>
<clipPath id="clip0_204_1712">
<rect width="14" height="14" fill="white"/>
</clipPath>
</defs>
</svg>
