<svg width="14" height="14" viewBox="0 0 14 14" fill="none" xmlns="http://www.w3.org/2000/svg">
<g clip-path="url(#clip0_204_1718)">
<path fill-rule="evenodd" clip-rule="evenodd" d="M7.27129 0.884579C8.414 0.968776 9.52808 1.61891 10.0545 2.72063C10.5217 3.69859 10.365 4.84616 10.3054 5.89738C10.6146 6.04667 10.9503 5.72727 11.2329 5.72727C11.861 5.72727 12.3166 6.48755 11.2561 6.9319C11.0334 7.02216 10.5315 7.12979 10.4184 7.41099C10.2623 7.79631 11.2761 9.73344 12.885 10.0146C13.0301 10.0388 13.1339 10.1758 13.1244 10.3306C13.0944 10.8826 12.0041 11.0873 11.4822 11.1741C11.2994 11.556 11.5188 12.1323 10.7342 11.9691C9.64722 11.7433 9.2882 12.0281 8.77625 12.41C6.4029 14.1909 5.33235 12.1045 4.38827 11.9379C3.68686 11.8129 3.24143 12.0142 3.00538 12.0142C2.56989 12.0142 2.66299 11.4276 2.53343 11.1741C2.06487 11.0978 1.10399 10.9172 0.921148 10.4659C0.63526 9.75774 1.72245 10.3618 2.92233 8.88291C3.17308 8.57071 3.38223 8.22385 3.54399 7.85186C3.83313 7.22353 3.3112 7.15772 2.76258 6.92832C1.49272 6.39719 2.42352 5.50848 2.96535 5.77924C3.18143 5.88677 3.49058 5.9943 3.70998 5.89394C3.66014 5.04692 3.54045 3.70687 3.8496 2.97441C4.44328 1.55708 5.83286 0.77859 7.27129 0.884579Z" stroke="white" stroke-miterlimit="10" stroke-linejoin="round"/>
</g>
<defs>
<clipPath id="clip0_204_1718">
<rect width="14" height="14" fill="white"/>
</clipPath>
</defs>
</svg>
