<svg width="14" height="14" viewBox="0 0 14 14" fill="none" xmlns="http://www.w3.org/2000/svg">
<g id="social-logos" clip-path="url(#clip0_204_1715)">
<path id="Vector" d="M13.1337 3.51068C12.3347 3.51068 11.5976 3.24599 11.0056 2.79947C10.3266 2.2876 9.83881 1.53674 9.66654 0.671306C9.62388 0.457478 9.60092 0.236814 9.59873 0.0106812H7.31635L7.31361 9.6633C7.31361 10.5766 6.71888 11.351 5.89447 11.6233C5.65521 11.7023 5.39681 11.7398 5.12775 11.725C4.78431 11.7061 4.46248 11.6025 4.18275 11.4352C3.58748 11.0792 3.18388 10.4333 3.17295 9.69447C3.15572 8.53974 4.08924 7.5983 5.24314 7.5983C5.47092 7.5983 5.68967 7.63549 5.89447 7.70302V5.38564C5.67845 5.35365 5.45861 5.33697 5.23631 5.33697C3.9733 5.33697 2.79205 5.86197 1.94767 6.80779C1.30947 7.52256 0.926657 8.43447 0.867594 9.39068C0.790212 10.6469 1.24986 11.841 2.14127 12.722C2.27224 12.8513 2.40978 12.9713 2.55361 13.0821C3.31787 13.6703 4.2522 13.9891 5.23631 13.9891C5.45861 13.9891 5.67845 13.9727 5.89447 13.9407C6.81377 13.8045 7.66197 13.3837 8.33135 12.722C9.15385 11.909 9.6083 10.8298 9.61322 9.68107L9.60146 4.57982C9.99385 4.88252 10.4229 5.13299 10.8833 5.3274C11.5995 5.62955 12.3588 5.78267 13.1403 5.7824V3.51013L13.1337 3.51068Z" fill="white"/>
</g>
<defs>
<clipPath id="clip0_204_1715">
<rect width="14" height="14" fill="white"/>
</clipPath>
</defs>
</svg>
