<svg width="15" height="14" viewBox="0 0 15 14" fill="none" xmlns="http://www.w3.org/2000/svg">
<g id="fi_3046121" clip-path="url(#clip0_400_2726)">
<g id="Group">
<g id="Group_2">
<path id="Vector" d="M5.94788 7.25701C4.83772 7.25701 3.94085 8.15388 3.95725 9.2531C3.96819 9.95857 4.35647 10.5711 4.92796 10.9129C4.73382 10.6148 4.61897 10.2621 4.6135 9.88201C4.5971 8.78279 5.49397 7.88591 6.60413 7.88591C6.82288 7.88591 7.03343 7.92146 7.2303 7.98435V5.78318C7.02522 5.7531 6.81468 5.73669 6.60413 5.73669C6.59319 5.73669 6.58499 5.73669 6.57405 5.73669V7.35544C6.37717 7.29255 6.16663 7.25701 5.94788 7.25701Z" fill="#F00044"/>
<path id="Vector_2" d="M10.7492 0.65625H10.7328H10.1641C10.3281 1.4793 10.7902 2.1957 11.4355 2.68242C11.0117 2.12188 10.7547 1.42188 10.7492 0.65625Z" fill="#F00044"/>
<path id="Vector_3" d="M14.0953 4.00583C13.8793 4.00583 13.6715 3.98396 13.4664 3.94568V5.52341C12.7227 5.52341 12.0008 5.37849 11.3227 5.08865C10.8852 4.90271 10.4777 4.66482 10.1031 4.37771L10.1141 9.24216C10.1086 10.3359 9.67656 11.3613 8.89453 12.1351C8.25742 12.764 7.45078 13.166 6.57578 13.2945C6.3707 13.3246 6.16016 13.341 5.94961 13.341C5.01445 13.341 4.12305 13.0375 3.39844 12.4769C3.48047 12.5754 3.56797 12.6711 3.66367 12.764C4.45117 13.5406 5.4957 13.9699 6.60859 13.9699C6.81914 13.9699 7.02969 13.9535 7.23477 13.9234C8.10977 13.7949 8.91641 13.3929 9.55352 12.764C10.3355 11.9902 10.7676 10.9648 10.773 9.87107L10.732 5.00662C11.1039 5.29373 11.5113 5.53435 11.9516 5.71755C12.6324 6.00466 13.3543 6.15232 14.0953 6.15232" fill="#F00044"/>
</g>
<path id="Vector_4" d="M3.65548 6.94802C4.43478 6.17419 5.47111 5.7449 6.57579 5.73669V5.15427C6.37072 5.12419 6.16017 5.10779 5.94962 5.10779C4.834 5.10779 3.78673 5.53708 2.99923 6.31912C2.2254 7.08748 1.78243 8.13748 1.78517 9.22849C1.78517 10.3277 2.21993 11.3586 3.0047 12.1379C3.13048 12.2609 3.259 12.3758 3.39572 12.4797C2.77775 11.7441 2.44142 10.8254 2.43868 9.8574C2.44142 8.76638 2.88165 7.71638 3.65548 6.94802Z" fill="#08FFF9"/>
<path id="Vector_5" d="M13.4664 3.94565V3.3605H13.4609C12.7008 3.3605 12.0008 3.10894 11.4375 2.68237C11.927 3.32769 12.6434 3.78706 13.4664 3.94565Z" fill="#08FFF9"/>
<path id="Vector_6" d="M6.49375 11.818C6.75352 11.8316 7.00234 11.7961 7.23203 11.7223C8.025 11.4625 8.59648 10.7242 8.59648 9.85469L8.59922 6.60078V0.65625H10.1633C10.1223 0.451172 10.1004 0.243359 10.0977 0.0273438H7.94297V5.96914L7.94023 9.22305C7.94023 10.0926 7.36875 10.8309 6.57578 11.0906C6.34609 11.1672 6.09727 11.2027 5.8375 11.1863C5.50664 11.1672 5.19766 11.0687 4.92969 10.9102C5.26602 11.4297 5.84023 11.7824 6.49375 11.818Z" fill="#08FFF9"/>
<path id="Vector_7" d="M6.57579 13.2945C7.45079 13.166 8.25743 12.7641 8.89454 12.1352C9.67658 11.3613 10.1086 10.3359 10.1141 9.24219L10.1031 4.37773C10.475 4.66484 10.8824 4.90547 11.3227 5.08867C12.0035 5.37578 12.7254 5.52344 13.4664 5.52344V3.9457C12.6434 3.78711 11.927 3.32773 11.4375 2.68242C10.7922 2.1957 10.3274 1.4793 10.166 0.65625H8.59923V6.59805L8.5965 9.85195C8.5965 10.7215 8.02501 11.4598 7.23204 11.7195C7.00236 11.7961 6.75353 11.8316 6.49376 11.8152C5.83751 11.7797 5.26603 11.427 4.9297 10.9102C4.35822 10.5711 3.96993 9.95586 3.959 9.25039C3.94259 8.15117 4.83947 7.2543 5.94962 7.2543C6.16837 7.2543 6.37892 7.28984 6.57579 7.35273V5.73398C5.47111 5.74219 4.43478 6.17148 3.65548 6.94531C2.88165 7.71367 2.43868 8.76367 2.44142 9.85195C2.44142 10.8199 2.77775 11.7387 3.39845 12.4742C4.12579 13.0348 5.01447 13.3383 5.94962 13.3383C6.16017 13.341 6.37072 13.3246 6.57579 13.2945Z" fill="black"/>
</g>
</g>
<defs>
<clipPath id="clip0_400_2726">
<rect width="14" height="14" fill="white" transform="translate(0.96875)"/>
</clipPath>
</defs>
</svg>
