<svg width="16" height="16" view-box="0 0 16 16" fill="none" xmlns="http://www.w3.org/2000/svg">
    <g clipPath="url(#clip0_15862_18103)">
        <path
            d="M10.6494 10.7653C10.8341 10.1184 10.9562 9.36684 11.0028 8.64527C11.0038 8.62642 11.001 8.60756 10.9944 8.58986C10.9879 8.57216 10.9777 8.55599 10.9647 8.54237C10.9516 8.52874 10.9359 8.51795 10.9185 8.51065C10.901 8.50336 10.8823 8.49972 10.8634 8.49996H8.64281C8.62463 8.4998 8.6066 8.50321 8.58974 8.51002C8.57288 8.51682 8.55753 8.52688 8.54456 8.53962C8.53158 8.55236 8.52125 8.56753 8.51414 8.58426C8.50703 8.601 8.50329 8.61897 8.50313 8.63715V10.3653C8.50352 10.4002 8.51705 10.4337 8.54103 10.459C8.56501 10.4844 8.59767 10.4998 8.6325 10.5021C9.25829 10.5527 9.8766 10.6721 10.4762 10.8581C10.5115 10.8687 10.5495 10.8649 10.582 10.8475C10.6145 10.8301 10.6387 10.8005 10.6494 10.7653Z"
            fill="#b4b4b4" />
        <path
            d="M10.1128 11.7913C9.63708 11.6524 9.14963 11.5573 8.65656 11.5072C8.63752 11.5051 8.61824 11.507 8.59995 11.5127C8.58166 11.5184 8.56476 11.5279 8.55033 11.5405C8.5359 11.5531 8.52425 11.5686 8.51612 11.5859C8.508 11.6033 8.50357 11.6221 8.50313 11.6413V13.68C8.50387 13.7044 8.51096 13.7281 8.52369 13.7488C8.53641 13.7695 8.55434 13.7866 8.57568 13.7983C8.59702 13.81 8.62105 13.8159 8.64537 13.8154C8.6697 13.8149 8.69349 13.8081 8.71438 13.7957C9.21125 13.506 9.62063 13.0194 9.99063 12.376C10.0513 12.271 10.1434 12.09 10.1991 11.9794C10.2077 11.9616 10.2123 11.9421 10.2125 11.9223C10.2127 11.9026 10.2086 11.883 10.2003 11.865C10.1921 11.847 10.18 11.8311 10.1648 11.8183C10.1497 11.8056 10.1319 11.7964 10.1128 11.7913Z"
            fill="#b4b4b4" />
        <path
            d="M7.35374 11.5127C6.86129 11.5595 6.37421 11.6518 5.89874 11.7883C5.81624 11.8121 5.78155 11.9258 5.81905 12.0005C5.87499 12.1118 5.94405 12.2539 6.00312 12.3602C6.40937 13.0789 6.84187 13.5321 7.29187 13.7955C7.31276 13.808 7.33654 13.8148 7.36087 13.8152C7.3852 13.8157 7.40922 13.8098 7.43057 13.7981C7.45191 13.7864 7.46983 13.7694 7.48256 13.7486C7.49528 13.7279 7.50237 13.7042 7.50312 13.6799V11.6402C7.50297 11.6216 7.49882 11.6032 7.49095 11.5863C7.48309 11.5694 7.47169 11.5545 7.45752 11.5424C7.44336 11.5303 7.42676 11.5214 7.40886 11.5162C7.39095 11.5111 7.37216 11.5099 7.35374 11.5127Z"
            fill="#b4b4b4" />
        <path
            d="M7.36344 8.49996H5.14281C5.12396 8.49972 5.10527 8.50335 5.08787 8.51063C5.07048 8.5179 5.05477 8.52867 5.04171 8.54226C5.02864 8.55585 5.01851 8.57198 5.01192 8.58964C5.00534 8.60731 5.00245 8.62614 5.00344 8.64496C5.04969 9.36559 5.17125 10.1187 5.35531 10.765C5.36053 10.7826 5.36921 10.7991 5.38084 10.8134C5.39248 10.8277 5.40683 10.8396 5.42308 10.8483C5.43933 10.857 5.45715 10.8624 5.4755 10.8642C5.49385 10.866 5.51238 10.8641 5.53 10.8587C6.1296 10.6727 6.74795 10.5536 7.37375 10.5037C7.40864 10.5014 7.44138 10.4861 7.46542 10.4607C7.48947 10.4353 7.50305 10.4018 7.50344 10.3668V8.63746C7.50332 8.61923 7.4996 8.6012 7.49249 8.58441C7.48538 8.56762 7.47502 8.5524 7.46201 8.53962C7.449 8.52684 7.4336 8.51676 7.41668 8.50996C7.39977 8.50315 7.38168 8.49975 7.36344 8.49996Z"
            fill="#b4b4b4" />
        <path
            d="M8.65719 4.49334C9.14993 4.44717 9.63676 4.35148 10.1103 4.20771C10.1293 4.20258 10.147 4.19332 10.162 4.18061C10.177 4.1679 10.1891 4.15204 10.1973 4.13415C10.2056 4.11626 10.2098 4.09679 10.2096 4.0771C10.2095 4.05741 10.205 4.03799 10.1966 4.02021C10.1406 3.90865 10.0631 3.74897 10.0038 3.6424C9.61969 2.9549 9.18688 2.47522 8.715 2.20491C8.6941 2.19253 8.67033 2.1858 8.64604 2.18539C8.62174 2.18498 8.59776 2.1909 8.57645 2.20256C8.55514 2.21423 8.53723 2.23124 8.52448 2.25192C8.51174 2.2726 8.50459 2.29625 8.50375 2.32053V4.35896C8.5042 4.37813 8.50863 4.397 8.51675 4.41437C8.52487 4.43174 8.53652 4.44723 8.55094 4.45987C8.56537 4.4725 8.58226 4.482 8.60055 4.48776C8.61884 4.49352 8.63813 4.49542 8.65719 4.49334Z"
            fill="#b4b4b4" />
        <path
            d="M8.64281 7.50045H10.8634C10.8821 7.50077 10.9007 7.49725 10.918 7.49012C10.9353 7.48299 10.951 7.4724 10.964 7.45899C10.9771 7.44559 10.9873 7.42965 10.9939 7.41217C11.0006 7.39468 11.0036 7.37602 11.0028 7.35733C10.9566 6.64576 10.8381 5.86358 10.6541 5.22546C10.6487 5.20791 10.6399 5.1916 10.6282 5.17746C10.6165 5.16333 10.6021 5.15164 10.5859 5.14308C10.5696 5.13451 10.5519 5.12923 10.5336 5.12755C10.5153 5.12587 10.4969 5.12781 10.4794 5.13327C9.88562 5.31264 9.26719 5.45921 8.63281 5.50827C8.59814 5.51024 8.5655 5.52525 8.54145 5.55029C8.51739 5.57533 8.5037 5.60855 8.50313 5.64327V7.36545C8.50378 7.40187 8.51886 7.43653 8.54505 7.46184C8.57124 7.48715 8.6064 7.50104 8.64281 7.50045Z"
            fill="#b4b4b4" />
        <path
            d="M7.29187 2.20536C6.80999 2.47318 6.3803 2.9688 5.99593 3.65443C5.93624 3.76099 5.86499 3.90786 5.80843 4.01911C5.80002 4.0369 5.79561 4.05631 5.7955 4.07598C5.7954 4.09565 5.7996 4.11511 5.80783 4.13298C5.81605 4.15085 5.82808 4.1667 5.84309 4.17943C5.85809 4.19215 5.8757 4.20143 5.89468 4.20661C6.36804 4.35302 6.85553 4.44907 7.34905 4.49318C7.36809 4.49526 7.38735 4.49337 7.40562 4.48762C7.42389 4.48188 7.44076 4.47241 7.45519 4.45981C7.46961 4.44721 7.48126 4.43176 7.4894 4.41442C7.49754 4.39709 7.502 4.37826 7.50249 4.35911V2.32099C7.5015 2.29684 7.49429 2.27335 7.48156 2.25281C7.46883 2.23226 7.451 2.21535 7.42982 2.20372C7.40863 2.19209 7.38479 2.18613 7.36063 2.18642C7.33646 2.18671 7.31277 2.19323 7.29187 2.20536Z"
            fill="#b4b4b4" />
        <path
            d="M7.37344 5.5081C6.73907 5.45967 6.12 5.31311 5.52688 5.13311C5.50935 5.12765 5.49093 5.12571 5.47265 5.12739C5.45438 5.12907 5.43661 5.13435 5.42038 5.14291C5.40415 5.15148 5.38977 5.16317 5.37807 5.1773C5.36637 5.19144 5.35757 5.20775 5.35219 5.22529C5.16813 5.86342 5.04969 6.6456 5.00344 7.35716C5.00263 7.37586 5.00565 7.39452 5.01231 7.412C5.01898 7.42949 5.02916 7.44542 5.04221 7.45883C5.05527 7.47224 5.07093 7.48283 5.08823 7.48996C5.10553 7.49709 5.1241 7.5006 5.14281 7.50029H7.36344C7.38153 7.50058 7.39949 7.4973 7.4163 7.49063C7.43312 7.48397 7.44845 7.47405 7.46143 7.46146C7.4744 7.44886 7.48476 7.43382 7.49192 7.41721C7.49908 7.40061 7.50289 7.38275 7.50313 7.36466V5.6431C7.50256 5.60839 7.48886 5.57517 7.46481 5.55013C7.44075 5.52509 7.40811 5.51007 7.37344 5.5081Z"
            fill="#b4b4b4" />
        <path
            d="M12.9506 3.05026C12.3018 2.395 11.5299 1.8744 10.6792 1.51836C9.82856 1.16233 8.91594 0.977877 7.99379 0.975607C7.07164 0.973338 6.15813 1.15329 5.30574 1.50514C4.45335 1.85698 3.67888 2.37378 3.02681 3.02584C2.37475 3.6779 1.85796 4.45237 1.50611 5.30476C1.15427 6.15715 0.974314 7.07066 0.976584 7.99281C0.978853 8.91496 1.1633 9.82758 1.51934 10.6782C1.87537 11.5289 2.39598 12.3008 3.05124 12.9496C3.70008 13.6049 4.472 14.1255 5.32265 14.4815C6.1733 14.8376 7.08591 15.022 8.00806 15.0243C8.93021 15.0266 9.84372 14.8466 10.6961 14.4948C11.5485 14.1429 12.323 13.6261 12.975 12.9741C13.6271 12.322 14.1439 11.5475 14.4957 10.6951C14.8476 9.84275 15.0275 8.92924 15.0253 8.00709C15.023 7.08494 14.8386 6.17232 14.4825 5.32167C14.1265 4.47102 13.6059 3.69911 12.9506 3.05026ZM5.51968 13.464C5.37888 13.2663 5.24869 13.0612 5.12968 12.8496C5.06718 12.7343 4.97843 12.5603 4.91936 12.4393C4.90583 12.4106 4.88645 12.3851 4.86246 12.3643C4.83848 12.3436 4.81043 12.328 4.7801 12.3187C4.74977 12.3094 4.71783 12.3066 4.68633 12.3103C4.65483 12.3141 4.62447 12.3244 4.59718 12.3406C4.4628 12.4159 4.28468 12.5193 4.15561 12.604C3.88496 12.3983 3.63793 12.1632 3.41905 11.9031C3.72175 11.6894 4.03933 11.4977 4.36936 11.3293C4.42749 11.2981 4.45593 11.2625 4.43749 11.1987C4.19568 10.3618 4.048 9.50054 3.99718 8.63089C3.99566 8.59611 3.9809 8.56324 3.95591 8.539C3.93092 8.51477 3.89761 8.50102 3.8628 8.50058H2.08968C2.0746 8.50075 2.05998 8.49546 2.04849 8.4857C2.03701 8.47594 2.02944 8.46235 2.02718 8.44745C2.00754 8.29912 1.99877 8.14956 2.00093 7.99995C1.99879 7.85064 2.00777 7.70137 2.0278 7.55339C2.03006 7.53849 2.03763 7.5249 2.04912 7.51514C2.0606 7.50538 2.07523 7.50009 2.0903 7.50026H3.86343C3.93499 7.50026 3.99374 7.45901 3.99749 7.38683C4.04764 6.5208 4.19438 5.66308 4.43499 4.82964C4.44395 4.79922 4.44202 4.76662 4.42952 4.73747C4.41703 4.70832 4.39476 4.68444 4.36655 4.66995C4.04361 4.50447 3.73208 4.3176 3.43405 4.11058C3.65177 3.85051 3.89392 3.61192 4.15718 3.39808C4.28468 3.48183 4.45093 3.57651 4.58405 3.65151C4.61339 3.66819 4.64584 3.67867 4.67939 3.68229C4.71294 3.68592 4.74688 3.68263 4.7791 3.67261C4.81132 3.66259 4.84115 3.64606 4.86673 3.62405C4.8923 3.60204 4.91309 3.57501 4.9278 3.54464C4.98655 3.4237 5.0528 3.28901 5.11718 3.17339C5.23671 2.95921 5.36752 2.75152 5.50905 2.5512C6.28824 2.18412 7.13961 1.99578 8.00093 1.99995C8.9053 1.99995 9.7478 2.2187 10.5175 2.57683C10.6534 2.76764 10.7786 2.96586 10.8925 3.17058C10.9734 3.3162 11.0594 3.49464 11.1319 3.64933C11.1397 3.6658 11.1507 3.68051 11.1644 3.69256C11.178 3.70462 11.194 3.71376 11.2113 3.71944C11.2286 3.72511 11.2469 3.72719 11.2651 3.72556C11.2832 3.72393 11.3008 3.71862 11.3169 3.70995C11.485 3.61901 11.6672 3.51433 11.8275 3.40901C12.0915 3.62496 12.3343 3.86564 12.5525 4.12776C12.2626 4.32879 11.9592 4.50953 11.6444 4.6687C11.6161 4.68321 11.5938 4.70715 11.5814 4.73638C11.5689 4.76561 11.5671 4.79827 11.5762 4.8287C11.8208 5.65648 11.966 6.51038 12.0091 7.37245C12.0107 7.40703 12.0256 7.43964 12.0506 7.46359C12.0756 7.48754 12.1088 7.501 12.1434 7.5012L13.9128 7.49901C13.9279 7.49884 13.9425 7.50413 13.954 7.51389C13.9655 7.52365 13.973 7.53723 13.9753 7.55214C14.0118 7.84915 14.0118 8.1495 13.9753 8.44651C13.9732 8.46153 13.9657 8.47526 13.9542 8.48515C13.9427 8.49504 13.928 8.50041 13.9128 8.50026H12.1419C12.107 8.50063 12.0737 8.51436 12.0487 8.53861C12.0237 8.56285 12.0089 8.59577 12.0075 8.63058C11.9588 9.49103 11.8134 10.3433 11.5741 11.1712C11.565 11.202 11.5669 11.2349 11.5793 11.2645C11.5918 11.2941 11.6141 11.3184 11.6425 11.3334C11.7987 11.4143 11.9728 11.5046 12.1228 11.5965C12.2728 11.6884 12.4212 11.7865 12.5644 11.8884C12.3478 12.1493 12.1072 12.3892 11.8456 12.605C11.7694 12.5546 11.6787 12.4975 11.6006 12.4506C11.5469 12.4193 11.4478 12.364 11.3928 12.3331C11.2734 12.2662 11.1466 12.3162 11.0869 12.4393C11.0272 12.5625 10.9359 12.739 10.8722 12.8534C10.7547 13.0637 10.6259 13.2674 10.4862 13.4637C9.71686 13.824 8.9053 14 8.00093 14C7.09655 14 6.28936 13.824 5.51968 13.464Z"
            fill="#b4b4b4" />
    </g>
    <defs>
        <clipPath id="clip0_15862_18103">
            <rect width="16" height="16" fill="white" />
        </clipPath>
    </defs>
</svg>