<svg width="24" height="24" viewBox="0 0 24 24" fill="none" xmlns="http://www.w3.org/2000/svg">
    <path
        d="M20.6672 6.38897C20.6955 6.37246 20.719 6.34882 20.7353 6.3204C20.7516 6.29199 20.7602 6.25979 20.7602 6.22702C20.7602 6.19425 20.7516 6.16205 20.7353 6.13364C20.719 6.10522 20.6955 6.08158 20.6672 6.06507L13.5075 1.90538C13.0494 1.63984 12.5293 1.5 11.9998 1.5C11.4702 1.5 10.9501 1.63984 10.492 1.90538L3.33374 6.06507C3.30543 6.08158 3.28195 6.10522 3.26563 6.13364C3.24931 6.16205 3.24072 6.19425 3.24072 6.22702C3.24072 6.25979 3.24931 6.29199 3.26563 6.3204C3.28195 6.34882 3.30543 6.37246 3.33374 6.38897L11.9062 11.4318C11.9351 11.4488 11.9679 11.4577 12.0014 11.4577C12.0349 11.4577 12.0677 11.4488 12.0965 11.4318L20.6672 6.38897Z"
        fill="#B4B4B4" />
    <path
        d="M2.53125 7.66477C2.50266 7.64826 2.47022 7.6396 2.4372 7.63965C2.40418 7.6397 2.37177 7.64847 2.34323 7.66507C2.31469 7.68167 2.29104 7.70552 2.27467 7.73419C2.2583 7.76286 2.24979 7.79535 2.25 7.82836V15.9795C2.25071 16.3723 2.35424 16.758 2.55029 17.0984C2.74634 17.4388 3.02809 17.7219 3.3675 17.9196L10.9688 22.4773C10.9972 22.4937 11.0296 22.5024 11.0625 22.5024C11.0954 22.5024 11.1277 22.4938 11.1562 22.4773C11.1847 22.4609 11.2083 22.4372 11.2248 22.4088C11.2413 22.3803 11.25 22.348 11.25 22.3151V12.8581C11.25 12.8252 11.2413 12.7929 11.2248 12.7644C11.2084 12.7359 11.1847 12.7123 11.1563 12.6959L2.53125 7.66477Z"
        fill="#B4B4B4" />
    <path
        d="M12.75 12.8909V22.3128C12.75 22.3457 12.7587 22.378 12.7752 22.4065C12.7917 22.435 12.8153 22.4586 12.8438 22.4751C12.8723 22.4915 12.9047 22.5001 12.9375 22.5001C12.9704 22.5001 13.0028 22.4915 13.0312 22.475L20.632 17.9173C20.9712 17.7199 21.2528 17.4372 21.4489 17.0972C21.645 16.7573 21.7488 16.372 21.75 15.9795V7.82844C21.7499 7.79558 21.7411 7.76333 21.7246 7.73492C21.7081 7.70651 21.6844 7.68294 21.656 7.66656C21.6275 7.65018 21.5952 7.64157 21.5623 7.6416C21.5295 7.64163 21.4972 7.65029 21.4688 7.66672L12.8438 12.7292C12.8153 12.7456 12.7917 12.7692 12.7753 12.7976C12.7588 12.8259 12.7501 12.8581 12.75 12.8909V12.8909Z"
        fill="#B4B4B4" />
</svg>