<svg view-box="0 0 16 16" height="16" width="16" fill="none" xmlns="http://www.w3.org/2000/svg">
    <path fill-rule="evenodd" clip-rule="evenodd"
        d="M3 4.66659C1.89543 4.66659 1 5.56202 1 6.66659V12.6666C1 13.7712 1.89543 14.6666 3 14.6666H13C14.1046 14.6666 15 13.7712 15 12.6666V6.66659C15 5.56202 14.1046 4.66659 13 4.66659H3ZM3.33331 5.99992C2.96512 5.99992 2.66664 6.2984 2.66664 6.66659V12.6666C2.66664 13.0348 2.96512 13.3333 3.33331 13.3333H12.6666C13.0348 13.3333 13.3333 13.0348 13.3333 12.6666V6.66659C13.3333 6.2984 13.0348 5.99992 12.6666 5.99992H3.33331Z"
        fill="#b4b4b4" />
    <path
        d="M7.33333 1.99992C7.33333 1.63173 7.63181 1.33325 8 1.33325C8.36819 1.33325 8.66666 1.63173 8.66666 1.99992V4.66659H7.33333V1.99992Z"
        fill="#b4b4b4" />
    <path
        d="M7.33332 8.66659C7.33332 9.40297 6.73637 9.99992 5.99999 9.99992C5.26361 9.99992 4.66666 9.40297 4.66666 8.66659C4.66666 7.93021 5.26361 7.33325 5.99999 7.33325C6.73637 7.33325 7.33332 7.93021 7.33332 8.66659Z"
        fill="#b4b4b4" />
    <path
        d="M11.3333 8.66659C11.3333 9.40297 10.7364 9.99992 9.99999 9.99992C9.26361 9.99992 8.66666 9.40297 8.66666 8.66659C8.66666 7.93021 9.26361 7.33325 9.99999 7.33325C10.7364 7.33325 11.3333 7.93021 11.3333 8.66659Z"
        fill="#b4b4b4" />
</svg>