<svg width="206" height="38" viewBox="0 0 206 38" fill="none" xmlns="http://www.w3.org/2000/svg">
<g id="Logotype_White 1" clip-path="url(#clip0_539_14943)">
<path id="Vector" d="M43.0842 28.0617V24.888C45.0521 24.2199 46.4757 22.132 46.4757 19.6683C46.4757 17.2045 45.0521 15.1166 43.0842 14.4485V11.2749C44.9265 10.6485 46.3082 8.76936 46.4338 6.47266H44.2147V7.4331C44.2147 8.18474 43.7541 8.85288 43.0842 9.14518V8.76936C43.0842 8.10123 42.498 7.55837 41.7862 7.55837H41.6606C40.9488 7.55837 40.3627 8.10123 40.3627 8.76936V9.2287C39.6927 8.89463 39.2322 8.26826 39.2322 7.51661V6.55617H37.0131C37.1805 8.81112 38.5204 10.732 40.3627 11.3584V14.532C38.3948 15.2001 36.9712 17.288 36.9712 19.7518C36.9712 22.2155 38.3948 24.3034 40.3627 24.9716V28.1452C38.5204 28.7716 37.1387 30.6507 37.0131 32.9474H39.2322V31.9869C39.2322 31.2353 39.6927 30.5672 40.3627 30.2749V30.7342C40.3627 31.4023 40.9488 31.9452 41.6606 31.9452H41.7862C42.498 31.9452 43.0842 31.4023 43.0842 30.7342V30.2749C43.7541 30.6089 44.2147 31.2353 44.2147 31.9869V32.9474H46.4338C46.3082 30.5672 44.9265 28.688 43.0842 28.0617ZM39.2322 21.0463V18.2902C39.2322 17.5386 39.6927 16.8705 40.3627 16.5782V17.0375C40.3627 17.7056 40.9488 18.2485 41.6606 18.2485H41.7862C42.498 18.2485 43.0842 17.7056 43.0842 17.0375V16.5782C43.7541 16.9122 44.2147 17.5386 44.2147 18.2902V21.0463C44.2147 21.7979 43.7541 22.4661 43.0842 22.7584V22.299C43.0842 21.6309 42.498 21.088 41.7862 21.088H41.6606C40.9488 21.088 40.3627 21.6309 40.3627 22.299V22.7584C39.6927 22.4661 39.2322 21.7979 39.2322 21.0463Z" fill="white"/>
<path id="Vector_2" d="M56.8172 21.3386V17.9562C58.7851 17.288 60.2087 15.2001 60.2087 12.7364C60.2087 10.2727 58.7851 8.18474 56.8172 7.51661V6.47266H54.1376V7.51661C52.1697 8.18474 50.7461 10.2727 50.7461 12.7364C50.7461 15.2001 52.1697 17.288 54.1376 17.9562V21.3386C52.1697 22.0067 50.7461 24.0946 50.7461 26.5584C50.7461 29.0221 52.1697 31.11 54.1376 31.7781V32.8221H56.8172V31.7781C58.7851 31.11 60.2087 29.0221 60.2087 26.5584C60.2087 24.0946 58.7851 22.0067 56.8172 21.3386ZM53.0071 14.1562V11.4001C53.0071 10.6485 53.4676 9.98035 54.1376 9.68804V10.1474C54.1376 10.8155 54.7237 11.3584 55.4355 11.3584H55.5611C56.2729 11.3584 56.8591 10.8155 56.8591 10.1474V9.68804C57.529 10.0221 57.9896 10.6485 57.9896 11.4001V14.1562C57.9896 14.9078 57.529 15.576 56.8591 15.8683V15.4507C56.8591 14.7825 56.2729 14.2397 55.5611 14.2397H55.4355C54.7237 14.2397 54.1376 14.7825 54.1376 15.4507V15.91C53.4676 15.576 53.0071 14.9078 53.0071 14.1562ZM57.9477 27.9364C57.9477 28.688 57.4872 29.3562 56.8172 29.6485V28.9803C56.8172 28.3122 56.2311 27.7694 55.5193 27.7694H55.3937C54.6819 27.7694 54.0957 28.3122 54.0957 28.9803V29.6485C53.4258 29.3144 52.9652 28.688 52.9652 27.9364V25.1803C52.9652 24.4287 53.4258 23.7606 54.0957 23.4683V23.7188C54.0957 24.3869 54.6819 24.9298 55.3937 24.9298H55.5193C56.2311 24.9298 56.8172 24.3869 56.8172 23.7188V23.4683C57.4872 23.8023 57.9477 24.4287 57.9477 25.1803V27.9364Z" fill="white"/>
<path id="Vector_3" d="M27.5922 16.9946C27.5503 16.8694 27.5503 16.7441 27.4665 16.6188C27.4665 16.5771 31.6954 11.1485 27.8015 7.80783C23.9076 4.46717 19.3856 8.81003 19.3438 8.85179C18.632 8.64299 17.8783 8.51772 17.1665 8.4342C15.7011 8.22541 13.6076 8.4342 13.6076 8.4342C12.8958 8.47596 12.184 8.60124 11.4722 8.81003C11.4304 8.76827 6.90841 4.42541 3.01451 7.76607C-0.879391 11.1067 3.3076 16.5353 3.34947 16.5771C3.3076 16.7023 3.26573 16.8276 3.22386 16.9529C2.80516 19.2913 -0.0419922 20.0012 -0.0419922 24.0518C-0.0419922 28.1858 2.93077 31.443 9.04378 31.443H11.556C11.556 31.443 12.519 32.7375 14.5287 32.821C14.5287 32.821 14.9893 32.8628 16.0361 32.821C18.1714 32.821 19.1763 31.4848 19.1763 31.443H21.6885C27.8015 31.443 30.7743 28.1858 30.7743 24.0518C30.8999 20.043 28.0109 19.2913 27.5922 16.9946Z" fill="white"/>
<path id="Vector_4" d="M71.1787 30.0658V9.60428H79.7202C81.0181 9.60428 82.1486 9.81307 83.0279 10.1889C83.9072 10.5647 84.619 11.1493 85.0377 11.9427C85.4982 12.6944 85.7494 13.6548 85.7494 14.7405C85.7494 15.8263 85.4564 16.7867 84.8283 17.5801C84.2421 18.3735 83.3629 18.8746 82.2742 19.1669V18.5823C83.1954 18.7911 83.9909 19.1252 84.6608 19.6263C85.3307 20.1274 85.8751 20.712 86.2519 21.4636C86.6287 22.2153 86.8381 23.0504 86.8381 24.0109C86.8381 24.9713 86.6706 25.8482 86.3775 26.5999C86.0844 27.3515 85.6238 27.9779 85.0377 28.479C84.4515 28.9801 83.7397 29.3559 82.9023 29.6482C82.0649 29.8988 81.1019 30.0241 80.0133 30.0241L71.1787 30.0658ZM74.3608 27.0175H79.8877C80.6832 27.0175 81.3531 26.8922 81.8974 26.6834C82.4836 26.4329 82.9023 26.0988 83.1954 25.6394C83.4885 25.1801 83.6559 24.5955 83.6559 23.9691C83.6559 23.3845 83.4885 22.8416 83.1535 22.4241C82.8604 22.0065 82.3998 21.6724 81.8137 21.4636C81.2275 21.2131 80.5157 21.1296 79.7202 21.1296H74.3608V27.0175ZM74.3608 18.0812H79.5527C80.1389 18.0812 80.6413 17.9559 81.1019 17.7471C81.5624 17.4966 81.9393 17.2043 82.1905 16.7867C82.4836 16.3691 82.6092 15.9098 82.6092 15.3669C82.6092 14.49 82.3161 13.8219 81.7299 13.3625C81.1438 12.9032 80.3064 12.6526 79.2177 12.6526H74.3608V18.0812ZM96.6356 30.3581C95.0446 30.3581 93.6629 30.0241 92.4068 29.3559C91.1925 28.6878 90.2295 27.7691 89.5177 26.5581C88.8478 25.3889 88.5129 24.0526 88.5129 22.5076C88.5129 21.2966 88.7222 20.2109 89.099 19.2087C89.4759 18.2065 90.0202 17.3713 90.732 16.6197C91.4438 15.868 92.2812 15.3252 93.2023 14.9076C94.1653 14.49 95.2539 14.2812 96.3844 14.2812C97.3893 14.2812 98.3104 14.49 99.1478 14.8658C100.027 15.2416 100.739 15.7427 101.367 16.4109C101.995 17.079 102.497 17.8724 102.832 18.7911C103.167 19.668 103.335 20.6702 103.335 21.7559L103.293 23.0504H90.732L90.062 20.6702H100.697L100.236 21.1713V20.4614C100.195 19.835 99.9433 19.2504 99.6084 18.7493C99.2316 18.2482 98.771 17.8307 98.1848 17.5383C97.5986 17.246 97.0125 17.1208 96.3425 17.1208C95.2958 17.1208 94.4165 17.3296 93.6629 17.7471C92.9511 18.123 92.4068 18.7076 92.0299 19.501C91.6531 20.2526 91.4856 21.2131 91.4856 22.3405C91.4856 23.4263 91.695 24.3449 92.1555 25.1383C92.6161 25.9318 93.2442 26.5164 94.0397 26.934C94.8771 27.3515 95.7982 27.5603 96.8868 27.5603C97.6405 27.5603 98.3523 27.435 98.9803 27.1845C99.6503 26.9339 100.362 26.4746 101.116 25.8065L102.623 27.9361C102.162 28.3955 101.576 28.8131 100.906 29.1471C100.236 29.4812 99.5246 29.7735 98.771 29.9823C98.1011 30.2746 97.3474 30.3581 96.6356 30.3581ZM105.763 30.0658V14.6988H108.82V19.501L108.527 18.3318C108.736 17.5801 109.113 16.912 109.615 16.3274C110.16 15.7427 110.746 15.2416 111.416 14.9076C112.086 14.5735 112.797 14.3647 113.509 14.3647C113.844 14.3647 114.137 14.4065 114.43 14.4482C114.723 14.49 114.975 14.5735 115.184 14.657L114.388 17.9142C114.137 17.8307 113.886 17.7471 113.593 17.6636C113.3 17.5801 113.049 17.5383 112.756 17.5383C112.211 17.5383 111.709 17.6636 111.248 17.8724C110.788 18.0812 110.369 18.3318 109.992 18.7076C109.657 19.0416 109.364 19.4592 109.155 19.9603C108.945 20.4197 108.82 20.9625 108.82 21.5054V30.0658H105.763ZM121.967 30.3581C120.711 30.3581 119.538 30.0241 118.492 29.3142C117.445 28.6043 116.608 27.6438 115.98 26.4329C115.351 25.2219 115.058 23.8438 115.058 22.3405C115.058 20.7955 115.351 19.4175 115.98 18.2482C116.608 17.0372 117.487 16.0768 118.575 15.4087C119.664 14.7405 120.878 14.3647 122.26 14.3647C123.056 14.3647 123.809 14.49 124.437 14.6988C125.107 14.9493 125.693 15.2834 126.154 15.701C126.656 16.1186 127.075 16.5779 127.368 17.1208C127.703 17.6636 127.912 18.2482 127.996 18.8746L127.326 18.6241V14.657H130.383V30.0658H127.326V26.3911L128.038 26.1823C127.912 26.7252 127.661 27.2263 127.284 27.7274C126.949 28.2285 126.489 28.646 125.903 29.0636C125.358 29.4394 124.73 29.7735 124.06 29.9823C123.39 30.2329 122.721 30.3581 121.967 30.3581ZM122.762 27.6021C123.684 27.6021 124.479 27.3933 125.191 26.934C125.903 26.4746 126.447 25.89 126.824 25.0966C127.243 24.3032 127.452 23.3845 127.452 22.3823C127.452 21.3801 127.243 20.5032 126.824 19.7098C126.447 18.9164 125.903 18.3318 125.191 17.8724C124.479 17.4131 123.684 17.2043 122.762 17.2043C121.883 17.2043 121.046 17.4131 120.376 17.8724C119.706 18.3318 119.162 18.9164 118.743 19.7098C118.366 20.5032 118.157 21.3801 118.157 22.3823C118.157 23.3845 118.366 24.3032 118.743 25.0966C119.162 25.89 119.706 26.4746 120.376 26.934C121.046 27.3515 121.841 27.6021 122.762 27.6021ZM140.264 30.3581C138.84 30.3581 137.543 30.0241 136.412 29.3142C135.282 28.6043 134.402 27.6438 133.732 26.4329C133.104 25.2219 132.769 23.8856 132.769 22.3823C132.769 20.879 133.104 19.5427 133.732 18.3318C134.402 17.1208 135.282 16.1603 136.412 15.4504C137.543 14.7405 138.84 14.4065 140.264 14.4065C141.646 14.4065 142.86 14.6988 143.99 15.2416C145.121 15.7845 146 16.5361 146.586 17.4966L144.912 19.5427C144.619 19.0834 144.2 18.6658 143.697 18.3318C143.195 17.9559 142.693 17.6636 142.148 17.4548C141.604 17.246 141.06 17.1208 140.557 17.1208C139.636 17.1208 138.799 17.3713 138.045 17.8307C137.333 18.29 136.747 18.9164 136.328 19.7098C135.91 20.5032 135.7 21.4219 135.7 22.3823C135.7 23.3427 135.91 24.2614 136.37 25.0548C136.831 25.8482 137.417 26.4746 138.171 26.934C138.924 27.3933 139.72 27.6438 140.641 27.6438C141.185 27.6438 141.688 27.5603 142.148 27.3933C142.651 27.2263 143.153 26.9757 143.614 26.5999C144.074 26.2658 144.535 25.8065 144.954 25.3054L146.628 27.3515C146 28.2285 145.121 28.9383 143.949 29.523C142.693 30.0658 141.478 30.3581 140.264 30.3581ZM148.512 30.0658V8.43505H151.527V17.8724L150.983 18.2065C151.192 17.5383 151.569 16.912 152.113 16.3274C152.699 15.7427 153.369 15.2834 154.123 14.9076C154.919 14.5318 155.714 14.3647 156.51 14.3647C157.682 14.3647 158.645 14.6153 159.44 15.0746C160.236 15.5339 160.822 16.2021 161.199 17.1625C161.576 18.0812 161.785 19.2922 161.785 20.712V30.0658H158.771V20.9208C158.771 20.0438 158.645 19.334 158.436 18.7493C158.184 18.1647 157.849 17.7471 157.347 17.4966C156.845 17.2043 156.258 17.1208 155.547 17.1625C154.96 17.1625 154.416 17.246 153.956 17.4548C153.453 17.6219 153.034 17.8724 152.658 18.2065C152.323 18.5405 152.03 18.9164 151.82 19.3757C151.611 19.7933 151.527 20.2526 151.527 20.7955V30.0658H150.02C149.769 30.0658 149.517 30.0658 149.266 30.0658C149.015 30.0658 148.764 30.0658 148.512 30.0658ZM170.997 30.3581C169.74 30.3581 168.568 30.0241 167.521 29.3142C166.475 28.6043 165.637 27.6438 165.051 26.4329C164.423 25.2219 164.13 23.8438 164.13 22.3405C164.13 20.7955 164.423 19.4175 165.051 18.2482C165.679 17.0372 166.558 16.0768 167.647 15.4087C168.736 14.7405 169.95 14.3647 171.332 14.3647C172.127 14.3647 172.881 14.49 173.509 14.6988C174.179 14.9493 174.765 15.2834 175.225 15.701C175.728 16.1186 176.147 16.5779 176.44 17.1208C176.775 17.6636 176.984 18.2482 177.068 18.8746L176.398 18.6241V14.657H179.454V30.0658H176.398V26.3911L177.11 26.1823C176.984 26.7252 176.733 27.2263 176.356 27.7274C176.021 28.2285 175.56 28.646 174.974 29.0636C174.43 29.4394 173.802 29.7735 173.132 29.9823C172.42 30.2329 171.708 30.3581 170.997 30.3581ZM171.792 27.6021C172.713 27.6021 173.509 27.3933 174.221 26.934C174.932 26.4746 175.477 25.89 175.854 25.0966C176.272 24.3032 176.482 23.3845 176.482 22.3823C176.482 21.3801 176.272 20.5032 175.854 19.7098C175.477 18.9164 174.932 18.3318 174.221 17.8724C173.509 17.4131 172.713 17.2043 171.792 17.2043C170.913 17.2043 170.075 17.4131 169.406 17.8724C168.736 18.3318 168.191 18.9164 167.773 19.7098C167.396 20.5032 167.186 21.3801 167.186 22.3823C167.186 23.3845 167.396 24.3032 167.773 25.0966C168.191 25.89 168.736 26.4746 169.406 26.934C170.075 27.3515 170.871 27.6021 171.792 27.6021ZM183.223 30.0658V14.6988H186.237V30.0658H183.223ZM184.688 11.3164C184.06 11.3164 183.558 11.1493 183.181 10.8153C182.846 10.4812 182.636 10.0219 182.636 9.39549C182.636 8.81087 182.804 8.35153 183.181 8.01747C183.558 7.6834 184.06 7.47461 184.688 7.47461C185.316 7.47461 185.819 7.64164 186.195 7.97571C186.53 8.30977 186.74 8.76912 186.74 9.39549C186.74 9.9801 186.572 10.4394 186.195 10.7735C185.819 11.1493 185.316 11.3164 184.688 11.3164ZM190.006 30.0658V14.6988H193.02V17.8724L192.476 18.2065C192.685 17.5383 193.062 16.912 193.606 16.3274C194.193 15.7427 194.862 15.2834 195.616 14.9076C196.412 14.5318 197.207 14.3647 198.003 14.3647C199.175 14.3647 200.138 14.6153 200.934 15.0746C201.729 15.5339 202.315 16.2021 202.692 17.1625C203.069 18.0812 203.278 19.2922 203.278 20.712V30.0658H200.264V20.9208C200.264 20.0438 200.138 19.334 199.929 18.7493C199.677 18.1647 199.343 17.7471 198.84 17.4966C198.338 17.2043 197.751 17.1208 197.04 17.1625C196.454 17.1625 195.909 17.246 195.407 17.4548C194.904 17.6219 194.486 17.8724 194.109 18.2065C193.774 18.5405 193.481 18.9164 193.271 19.3757C193.062 19.7933 192.978 20.2526 192.978 20.7955V30.0658H191.471C191.22 30.0658 190.969 30.0658 190.717 30.0658C190.508 30.0658 190.257 30.0658 190.006 30.0658Z" fill="white"/>
</g>
<defs>
<clipPath id="clip0_539_14943">
<rect width="206" height="38" fill="white"/>
</clipPath>
</defs>
</svg>
