<svg width="107" height="34" viewBox="0 0 107 34" fill="none" xmlns="http://www.w3.org/2000/svg">
<g id="ens-logo-White 1" clip-path="url(#clip0_539_14958)">
<path id="Vector" d="M95.7749 29.8037C90.2424 29.8037 85.6232 27.5572 85.0099 22.1909C84.9908 22.0248 85.1077 21.8745 85.2696 21.8533L90.9459 21.1094C91.1236 21.0861 91.2812 21.2256 91.2971 21.4085C91.5246 24.0815 93.3718 25.2893 95.9169 25.2893C98.6153 25.2893 99.9884 24.2698 99.9884 22.4737C99.9884 20.8718 98.1895 20.2893 94.4492 19.367C89.9039 18.2505 85.7374 16.7942 85.7374 11.7943C85.7374 6.45453 90.33 4.36719 95.4434 4.36719C100.558 4.36719 104.942 6.09934 105.681 11.4026C105.703 11.5663 105.593 11.719 105.434 11.7467L99.946 12.7063C99.7668 12.7377 99.6018 12.6008 99.5827 12.4155C99.329 9.94243 97.8012 8.83316 95.5381 8.83316C93.5969 8.83316 91.9871 9.5613 91.9871 11.2603C91.9871 12.9108 93.6916 13.4933 96.8638 14.2214C101.077 15.1923 106.333 16.3573 106.333 22.134C106.333 27.9591 101.314 29.8037 95.7749 29.8037Z" fill="#F6F6F6"/>
<path id="Vector_2" d="M81.3024 6.67803C83.1962 8.61975 83.433 11.2411 83.433 14.3964V29.2797C83.433 29.4518 83.2969 29.5913 83.1291 29.5913H77.0613C76.8935 29.5913 76.7575 29.4518 76.7575 29.2797V14.9789C76.7575 12.7459 76.5681 11.5809 75.5264 10.5615C74.6742 9.73626 73.8693 9.5906 72.4489 9.5906C70.413 9.5906 68.0457 10.9983 68.0457 15.9983V29.2797C68.0457 29.4518 67.9096 29.5913 67.7418 29.5913H61.7213C61.5535 29.5913 61.4175 29.4518 61.4175 29.2797V5.29058C61.4175 5.11851 61.5535 4.97901 61.7213 4.97901H67.6944C67.8623 4.97901 67.9983 5.11851 67.9983 5.29058V7.93219C67.9983 8.08143 68.2146 8.12864 68.2824 7.99654C69.6145 5.40194 72.1464 4.39648 75.0056 4.39648C78.0355 4.39648 79.7873 5.12466 81.3024 6.67803Z" fill="#F6F6F6"/>
<path id="Vector_3" d="M56.1722 7.48786C58.471 9.8845 59.6288 13.5271 59.7264 18.14C59.7299 18.3096 59.5988 18.4502 59.4338 18.4555L42.7187 18.9972C42.5498 19.0027 42.4169 19.1496 42.4286 19.3228C42.6879 23.1857 44.6344 25.1032 48.0907 24.9912C51.0072 24.8967 52.4792 23.5428 52.9374 21.1759C52.9678 21.0191 53.1042 20.9054 53.2597 20.9144L59.0812 21.2515C59.2688 21.2623 59.4017 21.4445 59.3557 21.6311C58.0618 26.8751 54.2087 29.6011 48.2388 29.7945C44.5479 29.9142 41.5763 28.7963 39.5274 26.8714C37.1858 24.6647 35.9513 21.4992 35.8255 17.4236C35.7061 13.5421 36.6452 10.2091 38.8938 7.85358C40.9117 5.69979 43.7165 4.49181 47.4078 4.3722C51.146 4.25103 54.1176 5.3689 56.1722 7.48786ZM47.5526 9.07852C45.6125 9.14142 44.2581 9.76811 43.3964 11.0102C42.8176 11.8254 42.4802 12.8343 42.348 14.0013C42.3272 14.1858 42.4735 14.3427 42.6544 14.3368L52.5336 14.0167C52.7127 14.0109 52.8484 13.8476 52.8205 13.666C52.6131 12.3172 52.1947 11.1887 51.382 10.3629C50.4528 9.42163 49.2564 9.02332 47.5526 9.07852Z" fill="#F6F6F6"/>
<path id="Vector_4" fill-rule="evenodd" clip-rule="evenodd" d="M15.3403 0.560001C15.2187 0.370787 15.4422 0.149217 15.6235 0.27914L23.214 5.71802C27.998 9.14594 30.2008 15.2664 28.6841 21.0343C28.5639 21.4912 28.435 21.8912 28.3139 22.2263C28.2388 22.434 27.9404 22.3892 27.9253 22.1682C27.7973 20.2902 26.4763 18.1431 25.5175 16.5847C25.3464 16.3065 25.1868 16.0471 25.0475 15.8113C24.1156 14.2331 17.3696 3.71976 15.3403 0.560001ZM5.28978 15.8571L14.3754 0.553317C14.4809 0.375674 14.291 0.168463 14.1109 0.264636C12.5225 1.11232 8.23683 3.56494 4.87214 7.00492C1.18483 10.7747 4.16473 14.9109 4.96457 15.883C5.05298 15.9905 5.21851 15.9771 5.28978 15.8571ZM14.1508 33.5963C14.2723 33.7855 14.0489 34.0071 13.8676 33.8772L6.27706 28.4383C1.49305 25.0104 -0.70974 18.8899 0.807014 13.1221C0.927158 12.6651 1.05608 12.2652 1.17716 11.93C1.25224 11.7223 1.55071 11.7671 1.56576 11.9881C1.69373 13.8661 3.01474 16.0133 3.97354 17.5716C4.1447 17.8498 4.3043 18.1092 4.44355 18.345C5.37543 19.9232 12.1214 30.4366 14.1508 33.5963ZM15.1164 33.6014L24.202 18.2976C24.2733 18.1776 24.4388 18.1642 24.5272 18.2717C25.3271 19.2438 28.307 23.38 24.6197 27.1498C21.255 30.5897 16.9693 33.0424 15.381 33.8901C15.2008 33.9862 15.0109 33.779 15.1164 33.6014Z" fill="#F6F6F6"/>
</g>
<defs>
<clipPath id="clip0_539_14958">
<rect width="106" height="34" fill="white" transform="translate(0.333008)"/>
</clipPath>
</defs>
</svg>
