<svg width="142" height="42" viewBox="0 0 142 42" fill="none" xmlns="http://www.w3.org/2000/svg">
<g id="Group">
<g id="Group_2">
<path id="Vector" fill-rule="evenodd" clip-rule="evenodd" d="M20.4084 41.4336C9.14426 41.4768 -0.0506546 32.246 0.000210019 20.9027C0.0514982 9.68894 9.20158 0.49725 20.5421 0.564823C31.7204 0.631583 40.9013 9.79438 40.814 21.1717C40.7282 32.3359 31.6401 41.4698 20.4084 41.4336Z" fill="white"/>
<path id="Vector_2" fill-rule="evenodd" clip-rule="evenodd" d="M22.9432 19.3487C24.7227 19.6006 26.462 19.8462 28.2552 20.1C28.4061 19.5596 28.5343 19.0988 28.6813 18.572C26.8371 18.2986 25.0771 18.0378 23.1873 17.7578C23.8228 15.5053 24.3718 13.3517 25.0584 11.2422C25.2846 10.5479 25.7899 9.89613 26.3049 9.35684C26.9806 8.65003 27.9156 8.80662 28.4879 9.58333C28.7277 9.90862 28.9535 10.2527 29.2408 10.5311C29.6077 10.8861 30.1485 11.0587 30.517 10.7131C30.7591 10.4862 30.7513 9.95236 30.7739 9.55092C30.7829 9.38964 30.593 9.19986 30.4616 9.05108C29.8218 8.32552 28.9574 8.06857 28.0446 8.0303C26.0082 7.94478 24.5469 8.98469 23.3994 10.5565C22.2625 12.1142 21.7638 13.9457 21.2211 15.7556C21.0628 16.284 20.9271 16.8194 20.768 17.3993C18.7854 17.1119 16.8835 16.8362 14.9262 16.5531C14.8568 17.0822 14.7921 17.5785 14.7231 18.1057C16.6608 18.4044 18.5148 18.6899 20.4307 18.9851C20.1742 20.0676 19.9352 21.0778 19.6896 22.1142C17.8103 21.851 16.0284 21.6023 14.2345 21.3508C14.1585 21.9311 14.1012 22.3696 14.0333 22.8859C15.835 23.1616 17.572 23.4271 19.3207 23.6946C19.3207 23.8922 19.3422 24.007 19.3172 24.1113C18.7593 26.493 18.2403 28.8852 17.6145 31.2485C17.3155 32.3755 16.8343 33.4635 15.899 34.2554C15.1289 34.9072 14.2829 34.7982 13.7039 33.9895C13.4422 33.6251 13.2239 33.1925 12.8785 32.9371C12.6262 32.75 12.0647 32.6375 11.8795 32.7875C11.6051 33.0101 11.4062 33.5025 11.4296 33.8641C11.4495 34.1847 11.7575 34.5596 12.0402 34.7783C12.9927 35.5128 14.1136 35.6194 15.2494 35.3957C17.1517 35.0204 18.4934 33.8317 19.325 32.1506C19.9785 30.8291 20.4678 29.4178 20.9302 28.0132C21.3489 26.7413 21.6332 25.4249 21.988 24.0832C23.8564 24.3546 25.6877 24.6205 27.5569 24.8919C27.7113 24.3577 27.8505 23.8742 28.0006 23.3537C26.0449 23.0659 24.1788 22.7906 22.2968 22.5133C22.5229 21.407 22.7241 20.4218 22.9432 19.3487Z" fill="black"/>
</g>
<path id="Vector_3" d="M55.2964 29.8698V21.8764H64.2141V19.2536H55.2964V14.4076H64.7636V11.7598H52.124V29.8698H55.2964ZM69.7952 14.7573V11.7598H66.8226V14.7573H69.7952ZM69.7952 29.8698V16.4309H66.8226V29.8698H69.7952ZM76.1107 29.8698V11.7598H73.1381V29.8698H76.1107ZM85.4861 30.1946C88.9333 30.1946 90.9816 27.9964 91.5811 25.8482H88.6585C88.134 27.1221 86.935 27.7216 85.3613 27.7216C83.6627 27.7216 81.9141 26.4976 81.7143 23.9997H91.731C92.0058 19.5034 89.4079 16.1312 85.2863 16.1312C81.4894 16.1312 78.6918 19.0038 78.6918 23.0505C78.6918 26.9223 81.1647 30.1946 85.4861 30.1946ZM88.7085 21.8265H81.7143C81.989 19.3035 83.8875 18.4542 85.2863 18.4542C87.0349 18.4542 88.6336 19.7282 88.7085 21.8265ZM100.195 30.1946C103.067 30.1946 105.84 28.421 106.44 25.2736H103.542C103.142 27.0721 101.718 27.7216 100.245 27.7216C98.4961 27.7216 96.7975 26.3477 96.7975 23.1504C96.7975 19.978 98.4462 18.6041 100.32 18.6041C101.943 18.6041 103.167 19.6033 103.442 21.0271H106.34C105.815 18.0546 103.267 16.1312 100.32 16.1312C96.298 16.1312 93.7251 19.1787 93.7251 23.1754C93.7251 27.1721 96.2979 30.1946 100.195 30.1946ZM114.798 30.1946C118.071 30.1946 121.418 28.0463 121.418 23.1754C121.418 18.3294 118.071 16.1312 114.798 16.1312C111.526 16.1312 108.179 18.3294 108.179 23.1754C108.179 28.0463 111.526 30.1946 114.798 30.1946ZM114.798 27.7716C112.9 27.7716 111.251 26.2978 111.251 23.1754C111.251 20.0779 112.9 18.5542 114.798 18.5542C116.697 18.5542 118.345 20.0779 118.345 23.1754C118.345 26.2978 116.697 27.7716 114.798 27.7716ZM127.042 14.7573V11.7598H124.069V14.7573H127.042ZM127.042 29.8698V16.4309H124.069V29.8698H127.042ZM133.357 29.8698V22.7257C133.357 20.3027 134.181 18.5542 136.479 18.5542C138.778 18.5542 139.027 20.3527 139.027 22.1512V29.8698H142V21.4268C142 18.2294 140.676 16.1312 137.429 16.1312C135.53 16.1312 134.131 16.9055 133.357 18.3044V16.4309H130.384V29.8698H133.357Z" fill="white"/>
</g>
</svg>
