<svg width="157" height="32" viewBox="0 0 157 32" fill="none" xmlns="http://www.w3.org/2000/svg">
<g id="Polygon_Mono_Light 1" clip-path="url(#clip0_529_13161)">
<path id="Vector" d="M25.0531 0.833984L15.566 6.26942V23.2337L10.3315 26.2607L5.06502 23.2313V17.1747L10.3315 14.1746L13.7178 16.1337V11.2335L10.302 9.29892L0.817383 14.7958V25.6691L10.334 31.1364L19.8186 25.6691V8.70727L25.085 5.67776L30.349 8.70727V14.7368L25.085 17.7934L21.6693 15.817V20.6927L25.0531 22.6395L34.6313 17.2041V6.26942L25.0531 0.833984Z" fill="white"/>
<path id="Vector_2" fill-rule="evenodd" clip-rule="evenodd" d="M80.713 24.3849H84.9654V1.13086H80.713V24.3849ZM53.3739 7.85518C55.3894 7.85518 57.0605 8.6629 58.3819 10.2759C59.706 11.8888 60.3655 13.8897 60.3655 16.2784C60.3655 18.6671 59.7036 20.668 58.3819 22.281C57.058 23.8939 55.3894 24.7016 53.3739 24.7016C51.9465 24.7016 50.7062 24.2623 49.6578 23.3809C48.6291 22.4797 47.8736 21.2645 47.3888 19.7351V30.6697H43.1362V8.16944H47.3888V12.8193C47.8712 11.2898 48.6291 10.0844 49.6578 9.20547C50.7087 8.30445 51.9465 7.85518 53.3739 7.85518ZM51.8284 20.835C52.9826 20.835 53.9595 20.4054 54.7569 19.546C55.5543 18.6672 55.953 17.5771 55.953 16.2784C55.953 14.9797 55.5543 13.9314 54.7569 13.0721C53.9595 12.1932 52.9826 11.7513 51.8284 11.7513C50.5462 11.7513 49.488 12.181 48.6463 13.0402C47.8072 13.8995 47.3864 14.9772 47.3864 16.276C47.3864 17.5747 47.8072 18.6647 48.6463 19.5436C49.4856 20.403 50.5462 20.8325 51.8284 20.8325V20.835ZM61.4951 16.2784C61.4951 18.6671 62.3244 20.668 63.9832 22.281C65.6418 23.8939 67.7115 24.7016 70.1898 24.7016C72.668 24.7016 74.7376 23.8939 76.3963 22.281C78.0551 20.668 78.8844 18.6671 78.8844 16.2784C78.8844 13.8897 78.0551 11.8888 76.3963 10.2759C74.7376 8.6629 72.668 7.85518 70.1898 7.85518C67.7115 7.85518 65.6418 8.6629 63.9832 10.2759C62.3244 11.8888 61.4951 13.8897 61.4951 16.2784ZM67.1332 19.546C66.3138 18.6672 65.9052 17.5771 65.9052 16.2784C65.9052 14.9797 66.3138 13.9314 67.1332 13.0721C67.9527 12.1932 68.9716 11.7513 70.1898 11.7513C71.4079 11.7513 72.4268 12.181 73.2463 13.0402C74.0658 13.8995 74.4743 14.9772 74.4743 16.276C74.4743 17.5747 74.0658 18.6647 73.2463 19.5436C72.4268 20.403 71.4079 20.8325 70.1898 20.8325C68.9716 20.8325 67.9527 20.403 67.1332 19.5436V19.546ZM124.252 22.281C122.594 20.668 121.764 18.6671 121.764 16.2784C121.764 13.8897 122.594 11.8888 124.252 10.2759C125.911 8.6629 127.981 7.85518 130.459 7.85518C132.937 7.85518 135.007 8.6629 136.666 10.2759C138.324 11.8888 139.154 13.8897 139.154 16.2784C139.154 18.6671 138.324 20.668 136.666 22.281C135.007 23.8939 132.937 24.7016 130.459 24.7016C127.981 24.7016 125.914 23.8939 124.252 22.281ZM126.172 16.2784C126.172 17.5771 126.581 18.6672 127.4 19.546C128.22 20.4054 129.238 20.835 130.457 20.835C131.675 20.835 132.694 20.4054 133.513 19.546C134.333 18.6672 134.741 17.5771 134.741 16.2784C134.741 14.9797 134.333 13.8995 133.513 13.0427C132.694 12.1834 131.675 11.7538 130.457 11.7538C129.238 11.7538 128.22 12.1932 127.4 13.0746C126.581 13.9338 126.172 15.0018 126.172 16.2809V16.2784ZM150.472 7.85518C152.278 7.85518 153.728 8.48369 154.818 9.74065C155.93 10.9976 156.486 12.6008 156.486 14.5476V24.3825H152.234V15.3013C152.234 14.253 151.899 13.3937 151.225 12.7235C150.553 12.0533 149.714 11.717 148.705 11.717C147.57 11.717 146.647 12.0533 145.934 12.7235C145.22 13.3937 144.863 14.253 144.863 15.3013V24.3825H140.611V8.16944H144.863V12.3184C145.284 10.9363 145.988 9.84622 146.975 9.05079C147.984 8.25536 149.148 7.85765 150.472 7.85765V7.85518ZM95.1809 20.0616L99.527 8.18416H103.844L94.898 30.6844H90.5814L92.8504 24.9643L86.2034 8.18416H90.8029L95.1809 20.0616ZM115.937 8.16944V12.2325C115.051 9.58107 112.863 8.16944 109.952 8.16944C105.556 8.16944 102.958 11.9993 102.958 16.0255C102.958 20.0518 105.537 24.1959 109.952 24.1959C112.863 24.1959 115.051 22.1018 115.937 19.4503V22.5608C115.937 23.8817 115.506 24.9692 114.645 25.8285C113.783 26.6878 112.735 27.1174 111.495 27.1174C109.814 27.1174 108.566 26.2803 107.747 24.6035L103.935 26.6141C104.648 27.9348 105.667 28.9905 106.991 29.7884C108.315 30.5838 109.816 30.9816 111.495 30.9816C113.973 30.9816 116.043 30.1763 117.701 28.5609C119.36 26.948 120.189 24.9471 120.189 22.5583V8.16944H115.937ZM114.709 19.1066C113.889 19.9242 112.861 20.3317 111.623 20.3317C110.385 20.3317 109.418 19.9242 108.598 19.1066C107.779 18.2694 107.37 17.2432 107.37 16.028C107.37 14.8127 107.779 13.7964 108.598 12.9788C109.418 12.1613 110.424 11.7538 111.623 11.7538C112.821 11.7538 113.892 12.1613 114.709 12.9788C115.528 13.7743 115.937 14.7907 115.937 16.028C115.937 17.2653 115.528 18.2915 114.709 19.1066Z" fill="white"/>
</g>
<defs>
<clipPath id="clip0_529_13161">
<rect width="156" height="30.3333" fill="white" transform="translate(0.666504 0.833984)"/>
</clipPath>
</defs>
</svg>
