<svg width="159" height="50" viewBox="0 0 159 50" fill="none" xmlns="http://www.w3.org/2000/svg">
<g id="protocollabs 1" clip-path="url(#clip0_529_13183)">
<path id="Vector" d="M81.3838 9.7641C81.3838 6.52566 78.9111 4.78192 75.9796 4.78192H68.9034V20.6335H72.5216V15.2435H75.59C79.3456 15.2435 81.3832 12.7529 81.3832 9.76379L81.3838 9.7641ZM77.6051 9.99066C77.6051 11.3494 76.7124 12.2557 75.4983 12.2557H72.4985V7.77191H75.4983C76.7118 7.77191 77.6051 8.54223 77.6051 9.9916V9.99066ZM90.818 11.5985V8.11098H89.719C88.4597 8.11098 87.2463 8.65473 86.6275 9.69629V8.11098H83.2157V20.6338H86.7422V13.976C86.7422 12.2322 87.7724 11.576 89.5129 11.576C89.9939 11.576 90.818 11.5985 90.818 11.5985ZM97.9849 20.7922C101.649 20.7922 104.259 18.6182 104.259 14.3838C104.259 10.1266 101.649 7.95254 97.9849 7.95254C94.3436 7.95254 91.7335 10.1266 91.7335 14.3838C91.7335 18.6182 94.3436 20.7922 97.9849 20.7922ZM97.9849 10.7829C99.5191 10.7829 100.664 11.8016 100.664 14.3838C100.664 16.9425 99.5188 17.9619 97.9849 17.9619C96.4965 17.9619 95.3289 16.9432 95.3289 14.3838C95.3289 11.8025 96.4965 10.7829 97.9849 10.7829ZM112.961 20.5885V17.69C112.961 17.69 112.16 17.7582 111.427 17.7582C110.671 17.7582 110.442 17.5541 110.442 16.7847V10.92H113.121V8.11223H110.442V4.78348H106.893V8.11223H105.061V10.92H106.893V16.966C106.893 19.2988 107.236 20.7254 110.19 20.7254C111.793 20.7254 112.961 20.5894 112.961 20.5894V20.5885ZM120.288 20.7922C123.952 20.7922 126.562 18.6182 126.562 14.3838C126.562 10.1266 123.952 7.95254 120.288 7.95254C116.647 7.95254 114.037 10.1266 114.037 14.3838C114.037 18.6182 116.647 20.7922 120.288 20.7922ZM120.288 10.7829C121.822 10.7829 122.967 11.8016 122.967 14.3838C122.967 16.9425 121.822 17.9619 120.288 17.9619C118.8 17.9619 117.632 16.9432 117.632 14.3838C117.632 11.8025 118.8 10.7829 120.288 10.7829ZM136.317 15.9007C136.088 17.395 135.058 17.9616 133.936 17.9616C132.494 17.9616 131.349 16.9429 131.349 14.3835C131.349 11.8022 132.471 10.7825 133.982 10.7825C135.172 10.7825 136.089 11.3716 136.272 12.9116H139.822C139.524 9.60535 137.143 7.95223 133.96 7.95223C130.319 7.95223 127.709 10.1944 127.709 14.4288C127.709 18.686 130.388 20.7919 134.029 20.7919C137.28 20.7919 139.479 19.1388 139.845 15.9007H136.318H136.317ZM147.125 20.7919C150.789 20.7919 153.4 18.6179 153.4 14.3835C153.4 10.1263 150.789 7.95223 147.125 7.95223C143.484 7.95223 140.874 10.1263 140.874 14.3835C140.874 18.6179 143.484 20.7919 147.125 20.7919ZM147.125 10.7825C148.66 10.7825 149.804 11.8013 149.804 14.3835C149.804 16.9422 148.659 17.9616 147.125 17.9616C145.637 17.9616 144.469 16.9429 144.469 14.3835C144.469 11.8022 145.637 10.7825 147.125 10.7825ZM158.644 20.6335V3.87629H155.117V20.6335H158.644ZM80.262 45.5429V42.4179H72.5226V29.6913H68.9044V45.5429H80.262ZM89.8109 40.7419C89.8109 41.806 89.0778 43.1644 86.9944 43.1644C85.6435 43.1644 85.2769 42.3269 85.2769 41.7604C85.2769 40.9682 85.8954 40.4697 86.7422 40.3113C87.6119 40.13 89.8106 39.8582 89.8106 39.8582V40.7416L89.8109 40.7419ZM82.0711 37.1185H85.4833C85.4833 36.62 85.6208 35.5788 87.7048 35.5788C89.3995 35.5788 89.8119 36.1679 89.8119 37.0282V37.4585L85.6445 38.0475C84.4768 38.2063 81.6603 38.9075 81.6603 41.7616C81.6603 44.275 83.6069 45.7016 86.217 45.7016C88.3927 45.7016 89.3543 44.9766 89.9038 44.411V45.5432H93.6367C93.6367 45.5432 93.3618 44.5922 93.3618 43.6863V36.9379C93.3618 35.1263 92.3544 32.8619 87.7064 32.8619C82.8978 32.8619 82.1195 35.2844 82.0737 37.1191H82.0714L82.0711 37.1185ZM99.1762 45.5429V44.32C99.8177 45.1122 100.939 45.7013 102.336 45.7013C105.771 45.7013 108.129 43.5269 108.129 39.2925C108.129 35.0357 105.725 32.8613 102.542 32.8613C101.146 32.8613 99.8174 33.4504 99.1762 34.2425V28.7847H95.6496V45.5419H99.1762V45.5425V45.5429ZM101.855 35.6919C103.389 35.6919 104.534 36.7107 104.534 39.2925C104.534 41.8513 103.389 42.8707 101.855 42.8707C100.137 42.8707 99.199 42.0785 99.199 39.2925C99.199 36.4847 100.137 35.6919 101.855 35.6919ZM116.945 36.7332H120.403C120.403 35.7597 119.899 32.8607 114.952 32.8607C111.93 32.8607 109.525 34.1966 109.525 36.7779C109.525 39.6988 111.906 40.3107 114.631 40.6732L115.319 40.7638C116.303 40.8997 117.219 41.1038 117.219 41.8732C117.219 42.7788 116.235 43.1413 115.113 43.1413C113.899 43.1413 112.822 42.7788 112.822 41.5788H109.273C109.273 42.2357 109.57 45.7 114.905 45.7C119.645 45.7 120.79 43.4125 120.79 41.4882C120.79 36.4382 113.05 38.4538 113.05 36.5288C113.05 35.6688 114.012 35.3966 114.905 35.3966C116.119 35.3966 116.944 35.8725 116.944 36.7325L116.945 36.7332H116.945ZM24.6476 36.8669C25.1905 37.1769 25.6313 37.9347 25.6313 38.5519V49.2175C25.6313 49.8379 25.188 50.0879 24.6479 49.78L15.3149 44.4525C14.7723 44.1422 14.3315 43.3847 14.3315 42.7675V32.1019C14.3315 31.4816 14.7748 31.2316 15.3149 31.5394L24.6479 36.8666L24.6476 36.8669ZM39.0439 27.4582C39.0439 28.0785 38.6006 28.8338 38.0602 29.1432L28.7234 34.4729C28.1805 34.7832 27.74 34.5285 27.74 33.9113V23.2488C27.74 22.6285 28.1833 21.8729 28.7234 21.5635L38.0602 16.2338C38.6031 15.9238 39.0439 16.1782 39.0439 16.7954L39.043 27.4588L39.0439 27.4582ZM36.9931 13.3019C37.5455 13.6169 37.5493 14.1254 37.0089 14.4341L27.667 19.766C27.1235 20.0763 26.2339 20.0707 25.6841 19.7566L2.97096 6.79098C2.41859 6.47598 2.4148 5.96754 2.95579 5.6591L12.2983 0.32629C12.8419 0.0162898 13.7314 0.0216023 14.2812 0.335665L36.9931 13.3038L36.9922 13.3029L36.9928 13.3022L36.9931 13.3019ZM12.2228 41.5582C12.2228 42.18 11.7795 42.4307 11.2407 42.1222L1.90857 36.795C1.366 36.4847 0.926758 35.7207 0.926758 35.0935V9.1591C0.926758 8.52879 1.37706 8.27473 1.92595 8.58879L24.6331 21.5507C25.1854 21.8654 25.6323 22.6272 25.6323 23.2444V33.9091C25.6323 34.5294 25.1861 34.7779 24.6464 34.4694L13.2094 27.9419C12.6643 27.6316 12.2234 27.8888 12.2234 28.5044V41.5569L12.2228 41.5575V41.5582ZM41.1447 15.5979C41.1447 14.976 41.5881 14.2197 42.1284 13.9113L51.4637 8.5816C52.0066 8.2716 52.4474 8.5341 52.4474 9.16129V35.0957C52.4474 35.726 51.9971 36.4941 51.4479 36.8066L28.7411 49.7682C28.1887 50.0832 27.7419 49.8332 27.7419 49.216V38.5504C27.7419 37.93 28.1874 37.1722 28.7278 36.8644L40.1591 30.3394C40.7026 30.0291 41.145 29.2675 41.145 28.651L41.1457 15.5969V15.5975H41.145L41.1447 15.5979ZM29.7712 6.77754C29.2277 6.46754 29.2309 5.96348 29.7712 5.6541L39.1112 0.323477C39.6541 0.0134773 40.538 0.0156648 41.0784 0.323477L50.4184 5.65566C50.9612 5.96566 50.9587 6.46973 50.4184 6.7791L41.079 12.111C40.5361 12.421 39.6522 12.4188 39.1119 12.111L29.7719 6.77816H29.7712V6.77754Z" fill="white"/>
</g>
<defs>
<clipPath id="clip0_529_13183">
<rect width="158" height="50" fill="white" transform="translate(0.666504)"/>
</clipPath>
</defs>
</svg>
