<svg width="153" height="24" viewBox="0 0 153 24" fill="none" xmlns="http://www.w3.org/2000/svg">
<g id="wordmark_white 1">
<path id="Vector" d="M4.07662 7.86133L8.68812 19.6004L13.2682 7.86133H16.1034L9.90371 23.4207H7.28623L1.05518 7.86133H4.07847H4.07662Z" fill="white"/>
<path id="Vector_2" d="M22.0541 20.4096C22.9267 20.9685 23.9854 21.3104 25.107 21.3104C28.2539 21.3104 30.7164 18.7953 30.7164 15.6275H33.3966C33.3966 20.1614 29.7203 23.7336 25.0461 23.7336C20.3719 23.7336 16.8506 20.1926 16.8506 15.7214C16.8506 11.25 20.5269 7.55273 25.2011 7.55273C27.5068 7.55273 30.1242 8.42236 31.8379 10.6893L22.0541 20.4096ZM20.3719 18.6704L28.1616 10.875C27.2578 10.2848 26.2303 9.97408 25.1089 9.97408C21.9933 9.97408 19.5308 12.4892 19.5308 15.6257C19.5308 16.7435 19.8426 17.7989 20.3719 18.6684V18.6704Z" fill="white"/>
<path id="Vector_3" d="M36.3887 0.75H39.3179V23.4209H36.3887V0.75Z" fill="white"/>
<path id="Vector_4" d="M42.6191 15.6256C42.6191 11.0293 46.1719 7.55078 50.8756 7.55078C55.5793 7.55078 59.1634 11.0293 59.1634 15.6256C59.1634 20.2219 55.6106 23.7317 50.8756 23.7317C46.1406 23.7317 42.6191 20.2532 42.6191 15.6256ZM50.8756 21.1228C53.9911 21.1228 56.3282 18.7621 56.3282 15.6256C56.3282 12.4891 53.9911 10.1284 50.8756 10.1284C47.7601 10.1284 45.4543 12.5203 45.4543 15.6256C45.4543 18.7309 47.7915 21.1228 50.8756 21.1228Z" fill="white"/>
<path id="Vector_5" d="M69.8825 23.4209C64.8357 23.4209 61.4692 20.3155 61.4692 15.6255C61.4692 10.9354 64.8339 7.86143 69.8825 7.86143H72.4999V0.75H75.4292V23.4209H69.8825ZM69.8825 20.812H72.4999V10.439H69.8825C66.5788 10.439 64.3985 12.5203 64.3985 15.6255C64.3985 18.7308 66.5788 20.812 69.8825 20.812Z" fill="white"/>
<path id="Vector_6" d="M79.7295 7.86149H82.6587V12.3641L87.488 7.55078L89.327 9.3838L82.6587 15.9988V23.4209H79.7295V7.86149Z" fill="white"/>
<path id="Vector_7" d="M89.5132 15.6256C89.5132 11.0293 93.0659 7.55078 97.7696 7.55078C102.473 7.55078 106.057 11.0293 106.057 15.6256C106.057 20.2219 102.505 23.7317 97.7696 23.7317C93.0345 23.7317 89.5132 20.2532 89.5132 15.6256ZM97.7696 21.1228C100.885 21.1228 103.222 18.7621 103.222 15.6256C103.222 12.4891 100.885 10.1284 97.7696 10.1284C94.6541 10.1284 92.3484 12.5203 92.3484 15.6256C92.3484 18.7309 94.6854 21.1228 97.7696 21.1228Z" fill="white"/>
<path id="Vector_8" d="M109.361 7.86149H112.227V9.72392C114.751 7.83025 115.841 7.55078 117.274 7.55078C119.145 7.55078 120.764 8.51417 121.543 10.0659C124.409 7.86149 125.562 7.55078 127.058 7.55078C129.738 7.55078 131.856 9.47573 131.856 12.3953V23.4209H128.926V12.706C128.926 11.2775 127.899 10.2222 126.589 10.2222C125.591 10.2222 124.844 10.4391 122.072 12.7373V23.4209H119.143V12.706C119.143 11.2775 118.115 10.2222 116.806 10.2222C115.809 10.2222 115.061 10.4391 112.288 12.7373V23.4209H109.359V7.86149H109.361Z" fill="white"/>
<path id="Vector_9" d="M140.207 20.4096C141.08 20.9685 142.139 21.3104 143.26 21.3104C146.407 21.3104 148.87 18.7953 148.87 15.6275H151.55C151.55 20.1614 147.874 23.7336 143.199 23.7336C138.525 23.7336 135.004 20.1926 135.004 15.7214C135.004 11.25 138.68 7.55273 143.354 7.55273C145.66 7.55273 148.278 8.42236 149.991 10.6893L140.207 20.4096ZM138.525 18.6704L146.315 10.875C145.411 10.2848 144.384 9.97408 143.262 9.97408C140.147 9.97408 137.684 12.4892 137.684 15.6257C137.684 16.7435 137.996 17.7989 138.525 18.6684V18.6704Z" fill="white"/>
</g>
</svg>
