<svg width="16" height="16" viewBox="0 0 16 16" fill="none" xmlns="http://www.w3.org/2000/svg">
<g id="arrow-up-right">
<g id="Vector">
<path fill-rule="evenodd" clip-rule="evenodd" d="M4.33306 4.55273C4.33306 4.13852 4.66885 3.80273 5.08306 3.80273L11.447 3.80273C11.8612 3.80273 12.197 4.13852 12.197 4.55273L12.197 10.9167C12.197 11.3309 11.8612 11.6667 11.447 11.6667C11.0328 11.6667 10.697 11.3309 10.697 10.9167L10.697 5.30273L5.08306 5.30273C4.66885 5.30273 4.33306 4.96695 4.33306 4.55273Z" fill="#B4B4B4"/>
<path fill-rule="evenodd" clip-rule="evenodd" d="M4.0224 11.9774C3.72951 11.6845 3.72951 11.2096 4.0224 10.9167L10.4748 4.46435C10.7676 4.17145 11.2425 4.17145 11.5354 4.46435C11.8283 4.75724 11.8283 5.23211 11.5354 5.52501L5.08306 11.9774C4.79017 12.2702 4.3153 12.2702 4.0224 11.9774Z" fill="#B4B4B4"/>
</g>
</g>
</svg>
