<svg width="62" height="62" viewBox="0 0 62 62" fill="none" xmlns="http://www.w3.org/2000/svg">
<path d="M24.6059 37H22.4609V26.5H29.1509V28.405H24.6059V31.03H29.0009V32.935H24.6059V37ZM37.2878 37H30.2978V26.5H32.4428V35.095H37.2878V37ZM43.3634 30.775L47.6534 37H45.0734L41.9084 32.425L40.5434 33.97V37H38.3984V26.5H40.5434V30.985L44.4734 26.5H47.1434L43.3634 30.775Z" fill="#FFE629"/>
<path d="M33.8736 0C32.7822 0 31.7089 0.0812414 30.6507 0.224483C29.5475 0.0769655 28.4988 0 27.4598 0C19.5901 0 12.4932 3.81728 7.5129 9.9029C7.46266 9.94779 7.42631 10.0012 7.38569 10.0547C5.79828 12.0205 4.43428 14.2215 3.3311 16.6032C3.30331 16.6556 3.27872 16.7069 3.25841 16.7635C2.49838 18.4279 1.86448 20.1767 1.37703 21.9982C1.32893 22.1009 1.30755 22.2131 1.29365 22.3296C0.587068 25.0833 0.201172 27.9909 0.201172 31C0.201172 35.7077 1.13331 40.1707 2.79128 44.1707C2.80624 44.2135 2.82014 44.2541 2.84045 44.2947C3.83459 46.6657 5.08528 48.8699 6.55297 50.8635C6.59038 50.9148 6.62138 50.9693 6.66734 51.0132C8.15321 53.0068 9.85607 54.7823 11.7342 56.296C11.7877 56.3548 11.8518 56.3986 11.9181 56.4446C16.3297 59.9422 21.6863 62 27.4598 62C28.4988 62 29.5475 61.923 30.6507 61.7755C31.7089 61.9188 32.7822 62 33.8736 62C48.9043 62 61.1322 48.0938 61.1322 31C61.1322 13.9062 48.9043 0 33.8736 0ZM22.5853 2.79428C22.2315 2.97814 21.8819 3.17055 21.5367 3.37045C21.3432 3.48269 21.1486 3.59066 20.9583 3.70824C20.6622 3.88997 20.3726 4.08238 20.0839 4.27586H18.0262C19.589 3.54469 21.2202 2.96852 22.921 2.61041C22.8066 2.66707 22.6986 2.73548 22.5853 2.79428ZM11.8101 49.1724H7.97683C7.034 47.8405 6.197 46.4091 5.4701 44.8966H9.51934C9.68717 45.275 9.85928 45.6502 10.0399 46.02C10.118 46.1793 10.1992 46.3364 10.2804 46.4947C10.4996 46.9244 10.7262 47.3466 10.9624 47.7625C11.0501 47.9174 11.1346 48.0746 11.2254 48.2285C11.4136 48.5481 11.6113 48.8603 11.8101 49.1724ZM4.97731 18.1724H9.06824C8.88117 18.6396 8.70372 19.112 8.5359 19.5909C8.48993 19.7235 8.4429 19.855 8.398 19.9875C8.24407 20.4472 8.10083 20.9111 7.96507 21.3793H3.78969C4.12962 20.2772 4.52728 19.2082 4.97731 18.1724ZM2.3391 31C2.3391 30.2795 2.37759 29.5697 2.42248 28.8621H6.68445C6.68338 28.8792 6.68338 28.8963 6.68231 28.9134C6.64276 29.6039 6.61497 30.2977 6.61497 31C6.61497 31.3581 6.62779 31.713 6.63848 32.069H2.38079C2.36903 31.7119 2.3391 31.3602 2.3391 31ZM6.76034 34.2069C6.80097 34.6569 6.85334 35.1038 6.91107 35.5485C6.91534 35.5805 6.91748 35.6137 6.92176 35.6468C7.00086 36.2411 7.09707 36.8301 7.20503 37.4138H2.98903C2.78059 36.3641 2.61597 35.2962 2.51014 34.2069H6.76034ZM7.4231 23.5172C7.39531 23.6434 7.37179 23.7717 7.34614 23.8978C7.31728 24.0389 7.28734 24.1789 7.25955 24.32C7.12914 24.9903 7.01369 25.6669 6.92283 26.3532C6.91855 26.3853 6.91641 26.4184 6.91214 26.4516C6.89931 26.5424 6.89183 26.6333 6.88007 26.7241H2.63734C2.77845 25.6359 2.95696 24.5627 3.20176 23.5172H7.4231ZM7.67859 39.5517C7.71172 39.6821 7.74272 39.8147 7.77693 39.944C7.78976 39.9911 7.80045 40.0402 7.81328 40.0873C7.98965 40.7383 8.18741 41.3786 8.39907 42.0114C8.44396 42.145 8.491 42.2755 8.53697 42.408C8.57652 42.5256 8.61607 42.6432 8.65776 42.7586H4.53903C4.1339 41.7207 3.78541 40.6496 3.48824 39.5517H7.67859ZM11.2243 13.7726C11.1346 13.9254 11.049 14.0836 10.9614 14.2386C10.7251 14.6544 10.4974 15.0778 10.2794 15.5064C10.1992 15.6646 10.1169 15.8207 10.0389 15.981C10.0303 15.9981 10.0207 16.0163 10.0121 16.0345H6.00459C6.81379 14.5091 7.74593 13.082 8.77962 11.7586H12.5242C12.3938 11.9457 12.2623 12.1317 12.1351 12.322C11.8198 12.7955 11.5162 13.2787 11.2243 13.7726ZM14.3457 6.41379H17.2982C17.0331 6.64576 16.768 6.87879 16.5104 7.12145C16.2955 7.32455 16.0871 7.53514 15.8776 7.74572C15.6659 7.95845 15.4564 8.17438 15.2511 8.39352C15.0534 8.6041 14.8556 8.81362 14.6632 9.03062C14.4922 9.22303 14.3286 9.42293 14.1629 9.62069H10.6332C11.7813 8.42666 13.0202 7.35021 14.3457 6.41379ZM9.63372 51.3103H13.3024C13.4232 51.4686 13.5429 51.6268 13.6669 51.7818C13.9898 52.188 14.3222 52.5835 14.6632 52.9694C14.8546 53.1864 15.0534 53.3959 15.2511 53.6065C15.4574 53.8267 15.667 54.0426 15.8797 54.2553C15.9652 54.3409 16.0464 54.4328 16.133 54.5172H12.9176C11.7428 53.5562 10.645 52.483 9.63372 51.3103ZM22.9199 59.3896C20.4688 58.8733 18.1523 57.9262 16.0037 56.6552H18.5895C18.7263 56.761 18.8674 56.8604 19.0053 56.963C19.2266 57.1277 19.4479 57.2933 19.6734 57.4505C20.0936 57.7434 20.5222 58.0245 20.9573 58.2918C21.1476 58.4083 21.3421 58.5173 21.5356 58.6296C21.8809 58.8294 22.2304 59.0219 22.5842 59.2057C22.6986 59.2645 22.8066 59.3329 22.9199 59.3896ZM33.8736 59.8621C33.0238 59.8621 32.1846 59.8118 31.3572 59.7167L30.9436 59.659C30.8858 59.6515 30.8292 59.6419 30.7725 59.6344C30.4027 59.582 30.036 59.5211 29.6726 59.4505C29.6416 59.4441 29.6116 59.4377 29.5817 59.4313C29.2279 59.3618 28.8772 59.2838 28.5298 59.1972C28.4774 59.1843 28.4251 59.1694 28.3727 59.1555C28.0488 59.0721 27.726 58.9845 27.4074 58.8872C27.3101 58.8572 27.2129 58.823 27.1156 58.792C26.843 58.7055 26.5715 58.6167 26.3032 58.5195C26.0851 58.4403 25.8702 58.3527 25.6554 58.2672C25.5089 58.2094 25.3603 58.1549 25.216 58.094C19.4682 55.6621 14.7017 50.8806 11.8016 44.7683C11.7749 44.7127 11.7503 44.6539 11.7246 44.5983C11.5696 44.2659 11.4189 43.9302 11.2746 43.5903C11.2169 43.4545 11.1634 43.3166 11.1078 43.1798C10.9999 42.9147 10.893 42.6485 10.7925 42.3791C10.7273 42.206 10.6663 42.0296 10.6043 41.8543C10.5199 41.617 10.4365 41.3786 10.3585 41.1381C10.2943 40.9414 10.2334 40.7426 10.1725 40.5448C10.103 40.3192 10.0357 40.0926 9.97152 39.8649C9.91166 39.6565 9.855 39.4448 9.80048 39.2342C9.74276 39.0108 9.68717 38.7853 9.63372 38.5597C9.58241 38.3438 9.53324 38.1279 9.48621 37.9098C9.43703 37.6821 9.39214 37.4533 9.34831 37.2235C9.30662 37.0044 9.26493 36.7852 9.22645 36.564C9.18583 36.3277 9.15055 36.0904 9.11528 35.852C9.08321 35.6361 9.05007 35.4212 9.02228 35.2032C8.98914 34.9466 8.96348 34.6869 8.93676 34.4282C8.91538 34.2261 8.89186 34.0252 8.87476 33.8221C8.8491 33.5249 8.832 33.2256 8.8149 32.9252C8.80527 32.7563 8.79138 32.5896 8.7839 32.4207C8.76466 31.9503 8.7529 31.4768 8.7529 31C8.7529 30.5232 8.76466 30.0497 8.7839 29.5783C8.79138 29.4094 8.80527 29.2416 8.8149 29.0737C8.832 28.7744 8.8491 28.474 8.87476 28.1769C8.89186 27.9738 8.91538 27.7728 8.93676 27.5708C8.96348 27.3121 8.99021 27.0534 9.02228 26.7958C9.05007 26.5788 9.08321 26.3628 9.11528 26.1469C9.15055 25.9085 9.18583 25.6712 9.22645 25.435C9.26386 25.2137 9.30555 24.9946 9.34831 24.7754C9.39214 24.5456 9.4381 24.3168 9.48621 24.0891C9.53324 23.8711 9.58241 23.6551 9.63372 23.4392C9.68717 23.2137 9.74276 22.9881 9.80048 22.7647C9.855 22.553 9.91165 22.3424 9.97045 22.1329C10.0346 21.9052 10.1019 21.6786 10.1714 21.4531C10.2323 21.2542 10.2933 21.0565 10.3574 20.8598C10.4365 20.6193 10.5199 20.3809 10.6043 20.1425C10.6663 19.9672 10.7273 19.7919 10.7925 19.6187C10.894 19.3493 10.9999 19.0832 11.1078 18.8181C11.1634 18.6812 11.2169 18.5433 11.2746 18.4076C11.4189 18.0677 11.5696 17.732 11.7246 17.3996C11.7513 17.3429 11.7749 17.2852 11.8016 17.2296C14.7017 11.1172 19.4682 6.33683 25.216 3.90386C25.3614 3.84293 25.5089 3.78841 25.6554 3.73069C25.8702 3.64517 26.0851 3.55752 26.3032 3.47841C26.5715 3.38114 26.843 3.29348 27.1156 3.20583C27.2129 3.17483 27.3091 3.14062 27.4074 3.11069C27.726 3.01341 28.0488 2.92469 28.3727 2.84238C28.424 2.83062 28.4764 2.81459 28.5288 2.80176C28.8762 2.71517 29.2268 2.63821 29.5806 2.56766C29.6116 2.56124 29.6416 2.55483 29.6715 2.54841C30.0349 2.47786 30.4016 2.41693 30.7714 2.36455C30.8281 2.356 30.8858 2.34745 30.9425 2.33997L31.3562 2.28224C32.1846 2.18817 33.0238 2.13793 33.8736 2.13793C47.7252 2.13793 58.9943 15.0852 58.9943 31C58.9943 46.9148 47.7252 59.8621 33.8736 59.8621Z" fill="#FFE629"/>
<path d="M14.8118 31.0015C14.8118 30.3292 14.8385 29.6536 14.8909 28.9929C14.9368 28.405 14.4986 27.8898 13.9096 27.8427C13.3184 27.8 12.8064 28.2361 12.7593 28.824C12.7027 29.5392 12.6738 30.2725 12.6738 31.0015V31.024C12.6738 31.614 13.1527 32.0812 13.7428 32.0812C14.3329 32.0812 14.8118 31.5916 14.8118 31.0015Z" fill="#FFE629"/>
<path d="M52.1868 24.897C52.3087 25.3823 52.7438 25.7052 53.2227 25.7052C53.3093 25.7052 53.3969 25.6945 53.4846 25.6731C54.0565 25.5288 54.4039 24.9483 54.2606 24.3754C54.081 23.6613 53.8705 22.9494 53.6331 22.2588C53.4418 21.7008 52.8346 21.4004 52.2756 21.5939C51.7176 21.7853 51.4193 22.3935 51.6107 22.9515C51.8277 23.5854 52.0211 24.2407 52.1868 24.897Z" fill="#FFE629"/>
<path d="M47.7961 45.9865C47.3686 46.5124 46.9164 47.0159 46.4525 47.4852C46.0366 47.9042 46.0398 48.5809 46.4589 48.9967C46.6673 49.203 46.9399 49.3067 47.2114 49.3067C47.4861 49.3067 47.7619 49.2009 47.9704 48.9903C48.4846 48.4718 48.9838 47.9149 49.4552 47.3355C49.8282 46.8769 49.7577 46.2035 49.3002 45.8315C48.8427 45.4584 48.1692 45.529 47.7961 45.9865Z" fill="#FFE629"/>
<path d="M15.548 37.0598C15.4059 36.4868 14.8233 36.1362 14.2524 36.2805C13.6795 36.4227 13.331 37.0031 13.4732 37.5761C13.6506 38.2891 13.8601 39.0021 14.0964 39.6948C14.2482 40.1395 14.6629 40.4195 15.1076 40.4195C15.222 40.4195 15.3385 40.4003 15.4529 40.3618C16.0109 40.1715 16.3102 39.5644 16.1199 39.0053C15.904 38.3703 15.7116 37.7151 15.548 37.0598Z" fill="#FFE629"/>
<path d="M44.4095 10.1011C43.7852 9.69382 43.1331 9.31861 42.4725 8.98616C41.9444 8.71892 41.303 8.93378 41.0369 9.45865C40.7707 9.98565 40.9823 10.6292 41.5093 10.8943C42.1005 11.1925 42.6831 11.5282 43.2421 11.8927C43.4217 12.0103 43.6248 12.0659 43.8247 12.0659C44.1743 12.0659 44.5163 11.8948 44.7216 11.5805C45.0433 11.0867 44.9044 10.4239 44.4095 10.1011Z" fill="#FFE629"/>
<path d="M41.6253 51.0462C41.031 51.3509 40.4174 51.6235 39.8017 51.8554C39.249 52.0628 38.97 52.6796 39.1785 53.2323C39.3399 53.6609 39.7461 53.925 40.179 53.925C40.3041 53.925 40.4313 53.9025 40.5564 53.8555C41.248 53.5946 41.9364 53.29 42.6024 52.9479C43.1272 52.6785 43.3357 52.034 43.0652 51.5091C42.7948 50.9842 42.1502 50.7758 41.6253 51.0462Z" fill="#FFE629"/>
<path d="M50.6878 16.3313C50.272 15.7167 49.8252 15.1191 49.3591 14.5537C48.9839 14.0983 48.3094 14.032 47.854 14.4083C47.3986 14.7835 47.3334 15.4569 47.7086 15.9134C48.1319 16.4276 48.5381 16.9717 48.9165 17.5297C49.1229 17.8354 49.4596 17.9989 49.8027 17.9989C50.009 17.9989 50.2175 17.9391 50.4013 17.8151C50.8909 17.4837 51.0192 16.8199 50.6878 16.3313Z" fill="#FFE629"/>
<path d="M54.0035 29.8984C53.4134 29.8984 52.9345 30.4115 52.9345 31.0016C52.9345 31.6569 52.9089 32.3186 52.8586 32.9664C52.8137 33.5554 53.2531 34.0695 53.8421 34.1144C53.8699 34.1166 53.8977 34.1176 53.9254 34.1176C54.4781 34.1176 54.9474 33.6922 54.9901 33.131C55.0447 32.4276 55.0725 31.7114 55.0725 31.0005V30.9311C55.0725 30.3421 54.5946 29.8984 54.0035 29.8984Z" fill="#FFE629"/>
<path d="M53.0112 38.2513C52.451 38.0632 51.846 38.3646 51.6568 38.9237C51.4408 39.564 51.1961 40.2 50.9288 40.8147C50.6936 41.3556 50.9406 41.9863 51.4825 42.2214C51.6215 42.2824 51.7669 42.3102 51.9091 42.3102C52.3217 42.3102 52.714 42.0696 52.8893 41.6677C53.1811 40.9975 53.4484 40.3026 53.6835 39.6046C53.8727 39.0455 53.5713 38.4394 53.0112 38.2513Z" fill="#FFE629"/>
<path d="M36.0649 7.05103C35.3402 6.96659 34.6037 6.92383 33.8746 6.92383H33.8297C33.2397 6.92383 32.7832 7.40272 32.7832 7.99279C32.7832 8.58286 33.2845 9.06176 33.8746 9.06176C34.5213 9.06176 35.1755 9.09917 35.8191 9.174C35.8608 9.17935 35.9024 9.18148 35.9441 9.18148C36.4786 9.18148 36.9415 8.78062 37.0045 8.23545C37.0719 7.64859 36.6518 7.11838 36.0649 7.05103Z" fill="#FFE629"/>
<path d="M18.8049 44.4347C18.4746 43.9441 17.8097 43.8158 17.3212 44.1461C16.8316 44.4764 16.7022 45.1402 17.0325 45.6298C17.4473 46.2445 17.8931 46.8431 18.357 47.4097C18.5686 47.6673 18.8754 47.8009 19.1844 47.8009C19.4227 47.8009 19.6633 47.7218 19.8621 47.5582C20.3185 47.183 20.3848 46.5106 20.0107 46.0531C19.5884 45.54 19.1822 44.9949 18.8049 44.4347Z" fill="#FFE629"/>
<path d="M16.2865 19.7378C15.7446 19.5026 15.116 19.7474 14.8787 20.2893C14.5847 20.9617 14.3164 21.6555 14.0802 22.3503C13.891 22.9094 14.1903 23.5165 14.7494 23.7068C14.8627 23.7453 14.9792 23.7635 15.0925 23.7635C15.5383 23.7635 15.9541 23.4823 16.1048 23.0377C16.3207 22.3995 16.5677 21.7634 16.837 21.1456C17.0754 20.6047 16.8285 19.974 16.2865 19.7378Z" fill="#FFE629"/>
<path d="M33.8738 52.9402C33.2089 52.9402 32.5408 52.9006 31.8876 52.8226C31.3051 52.7606 30.7695 53.1711 30.699 53.7579C30.6295 54.3437 31.0474 54.8761 31.6343 54.9466C32.3719 55.0343 33.1266 55.0792 33.8748 55.0792H33.9668C34.5569 55.0792 34.9898 54.6003 34.9898 54.0102C34.9898 53.4201 34.4638 52.9402 33.8738 52.9402Z" fill="#FFE629"/>
<path d="M19.8143 12.9765C19.3001 13.495 18.7988 14.0498 18.3274 14.6281C17.9532 15.0856 18.0216 15.759 18.4792 16.1321C18.678 16.2946 18.9174 16.3737 19.1547 16.3737C19.4647 16.3737 19.7715 16.2401 19.9832 15.9814C20.4118 15.4565 20.8651 14.953 21.3312 14.4848C21.747 14.0658 21.7448 13.3891 21.3269 12.9722C20.9078 12.5564 20.2323 12.5596 19.8143 12.9765Z" fill="#FFE629"/>
<path d="M27.2356 8.12502C26.543 8.38477 25.8535 8.68836 25.1875 9.02829C24.6616 9.29553 24.4521 9.94012 24.7204 10.4661C24.9085 10.837 25.2837 11.0497 25.6739 11.0497C25.8374 11.0497 26.0031 11.0123 26.1581 10.9332C26.7525 10.6307 27.3671 10.3592 27.9839 10.1283C28.5366 9.92088 28.8177 9.30515 28.6103 8.7525C28.4051 8.19771 27.7872 7.91764 27.2356 8.12502Z" fill="#FFE629"/>
<path d="M26.1981 51.087C25.6102 50.7888 25.0276 50.451 24.4675 50.0843C23.9725 49.7615 23.3119 49.9005 22.987 50.3933C22.6641 50.8871 22.802 51.5499 23.2959 51.8727C23.9212 52.2821 24.5722 52.6595 25.2296 52.993C25.3846 53.0721 25.5503 53.1084 25.7128 53.1084C26.103 53.1084 26.4782 52.8946 26.6674 52.5237C26.9346 51.9978 26.7241 51.3543 26.1981 51.087Z" fill="#FFE629"/>
</svg>
