<svg width="24" height="24" viewBox="0 0 24 24" fill="none" xmlns="http://www.w3.org/2000/svg">
<g id="Avatar/GitHub">
<rect width="24" height="24" rx="12" fill="white"/>
<path id="Vector" d="M19.5762 7.71718C18.7938 6.34292 17.7325 5.25493 16.3919 4.45294C15.0512 3.65091 13.5876 3.25 11.9999 3.25C10.4125 3.25 8.94834 3.65103 7.6079 4.45294C6.26727 5.25489 5.20596 6.34292 4.42351 7.71718C3.64118 9.09139 3.25 10.592 3.25 12.2191C3.25 14.1735 3.80627 15.931 4.91909 17.492C6.03179 19.0531 7.46923 20.1333 9.2313 20.7328C9.43641 20.7718 9.58825 20.7444 9.68697 20.6512C9.78573 20.5578 9.83506 20.4409 9.83506 20.3009C9.83506 20.2776 9.8331 20.0674 9.82931 19.6703C9.8254 19.2731 9.82356 18.9267 9.82356 18.6311L9.56151 18.6775C9.39443 18.7089 9.18365 18.7222 8.92918 18.7184C8.67483 18.7148 8.41078 18.6875 8.13739 18.6367C7.86389 18.5863 7.6095 18.4695 7.37402 18.2865C7.13866 18.1036 6.97158 17.8641 6.87282 17.5684L6.75889 17.2997C6.68295 17.1207 6.5634 16.922 6.40007 16.7041C6.23674 16.4861 6.07157 16.3382 5.90449 16.2604L5.82472 16.2019C5.77157 16.163 5.72225 16.116 5.67664 16.0616C5.63107 16.0071 5.59695 15.9527 5.57416 15.8981C5.55134 15.8435 5.57025 15.7987 5.63111 15.7636C5.69196 15.7284 5.80194 15.7114 5.96152 15.7114L6.18929 15.7463C6.34121 15.7775 6.52912 15.8707 6.75326 16.0265C6.97729 16.1822 7.16145 16.3846 7.30578 16.6336C7.48057 16.9529 7.69114 17.1962 7.93811 17.3636C8.18488 17.5311 8.43369 17.6146 8.68429 17.6146C8.93489 17.6146 9.15133 17.5952 9.33369 17.5564C9.51586 17.5175 9.68677 17.459 9.84635 17.3812C9.91471 16.8593 10.1008 16.4584 10.4045 16.1781C9.97165 16.1315 9.58246 16.0613 9.23677 15.9679C8.89127 15.8744 8.53425 15.7226 8.16593 15.5122C7.79741 15.3021 7.4917 15.0411 7.24872 14.7298C7.0057 14.4184 6.80626 14.0095 6.65067 13.5035C6.495 12.9974 6.41715 12.4135 6.41715 11.7517C6.41715 10.8095 6.71723 10.0077 7.31728 9.34582C7.03619 8.63742 7.06272 7.84329 7.39697 6.9635C7.61724 6.89334 7.9439 6.94599 8.37678 7.1211C8.80975 7.2963 9.12675 7.44638 9.32811 7.57082C9.52947 7.69521 9.6908 7.80062 9.81235 7.88611C10.5189 7.68376 11.248 7.58256 11.9998 7.58256C12.7517 7.58256 13.481 7.68376 14.1875 7.88611L14.6205 7.60595C14.9165 7.41902 15.2661 7.24771 15.6684 7.09198C16.071 6.93634 16.3788 6.89347 16.5916 6.96362C16.9332 7.84345 16.9637 8.63754 16.6825 9.34594C17.2825 10.0078 17.5827 10.8098 17.5827 11.7519C17.5827 12.4136 17.5046 12.9993 17.3492 13.5094C17.1935 14.0195 16.9924 14.428 16.7456 14.7357C16.4986 15.0433 16.1909 15.3022 15.8226 15.5123C15.4542 15.7226 15.097 15.8743 14.7515 15.9678C14.4059 16.0613 14.0167 16.1316 13.5838 16.1783C13.9786 16.5286 14.1761 17.0814 14.1761 17.8366V20.3006C14.1761 20.4406 14.2236 20.5574 14.3186 20.6508C14.4136 20.7441 14.5635 20.7715 14.7686 20.7324C16.5309 20.133 17.9683 19.0528 19.081 17.4917C20.1935 15.9307 20.75 14.1732 20.75 12.2188C20.7496 10.5919 20.3582 9.09139 19.5762 7.71718Z" fill="black"/>
</g>
</svg>
