<svg width="347" height="320" viewBox="0 0 347 320" fill="none" xmlns="http://www.w3.org/2000/svg">
<path d="M31.8067 170.149C31.5166 170.149 31.2349 170.121 30.9637 170.068L30.8702 170.542C30.2382 170.417 29.6544 170.168 29.1436 169.82L29.4158 169.421C28.9509 169.104 28.5528 168.695 28.245 168.217L27.8387 168.478C27.506 167.961 27.2686 167.373 27.1502 166.737L27.6253 166.648C27.5745 166.375 27.5477 166.092 27.5477 165.8C27.5477 165.508 27.5745 165.224 27.6253 164.951L27.1502 164.863C27.2686 164.226 27.506 163.638 27.8387 163.121L28.245 163.383C28.5528 162.905 28.9509 162.496 29.4158 162.179L29.1436 161.779C29.6544 161.431 30.2382 161.182 30.8702 161.057L30.9637 161.532C31.2349 161.478 31.5166 161.45 31.8067 161.45H32.768V160.967H34.6905V161.45H36.613V160.967H38.5356V161.45H40.4581V160.967H42.3806V161.45H44.3032V160.967H46.2257V161.45H48.1483V160.967H50.0708V161.45H51.9933V160.967H53.9159V161.45H55.8384V160.967H57.7609V161.45H59.6835V160.967H61.606V161.45H63.5285V160.967H65.4511V161.45H67.3736V160.967H69.2961V161.45H71.2187V160.967H73.1412V161.45H75.0637V160.967H76.9863V161.45H78.9088V160.967H80.8313V161.45H82.7539V160.967H84.6764V161.45H86.5989V160.967H88.5215V161.45H90.444V160.967H92.3666V161.45H94.2891V160.967H96.2116V161.45H98.1342V160.967H100.057V161.45H101.979V160.967H103.902V161.45H105.824V160.967H107.747V161.45H109.669V160.967H111.592V161.45H113.514V160.967H115.437V161.45H117.36V160.967H119.282V161.45H121.205V160.967H123.127V161.45H125.05V160.967H126.972V161.45H128.895V160.967H130.817V161.45H132.74V160.967H134.662V161.45H136.585V160.967H138.507V161.45H140.43V160.967H142.353V161.45H144.275V160.967H146.198V161.45H148.12V160.967H150.043V161.45H151.965V160.967H153.888V161.45H155.81V160.967H157.733V161.45H159.655V160.967H161.578V161.45H163.5V160.967H165.423V161.45H167.346V160.967H169.268V161.45H171.191V160.967H173.113V161.45H174.074C174.364 161.45 174.646 161.478 174.917 161.532L175.011 161.057C175.643 161.182 176.227 161.431 176.737 161.779L176.465 162.179C176.93 162.496 177.328 162.905 177.636 163.383L178.042 163.121C178.375 163.638 178.612 164.226 178.731 164.863L178.256 164.951C178.307 165.224 178.333 165.508 178.333 165.8C178.333 166.092 178.307 166.375 178.256 166.648L178.731 166.737C178.612 167.373 178.375 167.961 178.042 168.478L177.636 168.217C177.328 168.695 176.93 169.104 176.465 169.421L176.737 169.82C176.227 170.168 175.643 170.417 175.011 170.542L174.917 170.068C174.646 170.121 174.364 170.149 174.074 170.149H173.113V170.633H171.19V170.149H169.268V170.633H167.345V170.149H165.423V170.633H163.5V170.149H161.578V170.633H159.655V170.149H157.733V170.633H155.81V170.149H153.888V170.633H151.965V170.149H150.043V170.633H148.12V170.149H146.198V170.633H144.275V170.149H142.352V170.633H140.43V170.149H138.507V170.633H136.585V170.149H134.662V170.633H132.74V170.149H130.817V170.633H128.895V170.149H126.972V170.633H125.05V170.149H123.127V170.633H121.205V170.149H119.282V170.633H117.36V170.149H115.437V170.633H113.514V170.149H111.592V170.633H109.669V170.149H107.747V170.633H105.824V170.149H103.902V170.633H101.979V170.149H100.057V170.633H98.1341V170.149H96.2116V170.633H94.2891V170.149H92.3665V170.633H90.444V170.149H88.5215V170.633H86.5989V170.149H84.6764V170.633H82.7538V170.149H80.8313V170.633H78.9088V170.149H76.9862V170.633H75.0637V170.149H73.1411V170.633H71.2186V170.149H69.2961V170.633H67.3735V170.149H65.451V170.633H63.5284V170.149H61.6059V170.633H59.6834V170.149H57.7608V170.633H55.8383V170.149H53.9158V170.633H51.9932V170.149H50.0707V170.633H48.1481V170.149H46.2256V170.633H44.3031V170.149H42.3805V170.633H40.458V170.149H38.5355V170.633H36.6129V170.149H34.6904V170.633H32.7679V170.149H31.8067Z" stroke="#FFE629" stroke-width="0.966574" stroke-dasharray="1.93 1.93"/>
<path d="M142.604 113.8L142.596 113.79L142.587 113.781L141.91 113.11L141.569 113.453L140.216 112.11L140.556 111.767L139.203 110.424L138.862 110.767L137.509 109.424L137.849 109.081L136.496 107.738L136.155 108.081L134.802 106.738L135.142 106.395L133.788 105.052L133.448 105.395L132.094 104.053L132.435 103.709L131.081 102.366L130.741 102.71L129.387 101.367L129.728 101.024L128.374 99.6806L128.034 100.024L126.68 98.6808L127.021 98.3377L125.667 96.9948L125.327 97.3379L123.973 95.9949L124.313 95.6518L122.96 94.3089L122.619 94.652L121.266 93.3091L121.606 92.966L120.253 91.6231L119.912 91.9661L118.559 90.6232L118.899 90.2801L117.545 88.9372L117.205 89.2803L115.852 87.9374L116.192 87.5943L115.515 86.9228L115.374 86.7826H115.175H114.175V87.2659H112.175V86.7826H110.175V87.2659H108.175V86.7826H106.175V87.2659H104.175V86.7826H102.175V87.2659H100.175V86.7826H98.1749V87.2659H96.1749V86.7826H94.175V87.2659H92.175V86.7826H90.175V87.2659H88.175V86.7826H86.175V87.2659H84.175V86.7826H82.1751V87.2659H80.1751V86.7826H79.1751C78.8876 86.7826 78.6082 86.7558 78.3392 86.7049L78.2493 87.1798C77.6219 87.061 77.0417 86.8231 76.5328 86.49L76.7975 86.0856C76.3295 85.7793 75.929 85.3833 75.6189 84.9207L75.2174 85.1898C74.8779 84.6833 74.6353 84.1051 74.5139 83.4794L74.9884 83.3874C74.9364 83.1192 74.9091 82.8406 74.9091 82.5538C74.9091 82.267 74.9364 81.9885 74.9884 81.7203L74.5139 81.6283C74.6353 81.0026 74.8779 80.4244 75.2174 79.9178L75.6189 80.187C75.929 79.7244 76.3295 79.3284 76.7975 79.0221L76.5328 78.6177C77.0417 78.2846 77.6219 78.0467 78.2493 77.9279L78.3392 78.4028C78.6082 78.3518 78.8876 78.3251 79.1751 78.3251H80.125V77.8418H82.0247V78.3251H83.9244V77.8418H85.8242V78.3251H87.7239V77.8418H89.6236V78.3251H91.5233V77.8418H93.4231V78.3251H95.3228V77.8418H97.2225V78.3251H99.1222V77.8418H101.022V78.3251H102.922V77.8418H104.821V78.3251H106.721V77.8418H108.621V78.3251H110.521V77.8418H112.42V78.3251H114.32V77.8418H116.22V78.3251H117.17C117.449 78.3251 117.728 78.3518 118.001 78.4052L118.094 77.9309C118.701 78.0496 119.285 78.2871 119.797 78.6433L119.521 79.0399C119.743 79.195 119.95 79.3751 120.136 79.5801L120.145 79.5895L120.154 79.5984L120.83 80.2699L121.171 79.9268L122.524 81.2698L122.184 81.6128L123.538 82.9558L123.878 82.6127L125.231 83.9556L124.891 84.2987L126.245 85.6416L126.585 85.2986L127.939 86.6415L127.598 86.9846L128.952 88.3275L129.292 87.9844L130.646 89.3274L130.305 89.6705L131.659 91.0134L131.999 90.6703L133.353 92.0133L133.013 92.3563L134.366 93.6993L134.706 93.3562L136.06 94.6991L135.72 95.0422L137.073 96.3851L137.414 96.0421L138.767 97.385L138.427 97.7281L139.78 99.071L140.121 98.7279L141.474 100.071L141.134 100.414L142.488 101.757L142.828 101.414L144.181 102.757L143.841 103.1L145.195 104.443L145.535 104.1L146.889 105.443L146.548 105.786L147.225 106.457L147.366 106.597H147.565H148.512V106.114H150.405V106.597H152.298V106.114H154.191V106.597H156.084V106.114H157.977V106.597H159.869V106.114H161.762V106.597H163.655V106.114H165.548V106.597H167.441V106.114H169.334V106.597H171.227V106.114H173.12V106.597H174.066C174.354 106.597 174.633 106.624 174.902 106.675L174.992 106.2C175.62 106.319 176.2 106.557 176.709 106.89L176.444 107.294C176.912 107.601 177.313 107.997 177.623 108.459L178.024 108.19C178.364 108.697 178.606 109.275 178.728 109.901L178.253 109.993C178.305 110.261 178.332 110.539 178.332 110.826C178.332 111.113 178.305 111.392 178.253 111.66L178.728 111.752C178.606 112.377 178.364 112.956 178.024 113.462L177.623 113.193C177.313 113.656 176.912 114.052 176.444 114.358L176.709 114.762C176.2 115.095 175.62 115.333 174.992 115.452L174.902 114.977C174.633 115.028 174.354 115.055 174.066 115.055H173.049V115.538H171.013V115.055H168.978V115.538H166.942V115.055H164.907V115.538H162.872V115.055H160.836V115.538H158.801V115.055H156.765V115.538H154.73V115.055H152.694V115.538H150.659V115.055H148.624V115.538H146.588V115.055H145.571C145.291 115.055 145.012 115.028 144.739 114.975L144.647 115.449C144.039 115.33 143.455 115.093 142.943 114.737L143.22 114.34C142.997 114.185 142.79 114.005 142.604 113.8Z" stroke="#EEEEEE" stroke-width="0.966574" stroke-dasharray="1.93 1.93"/>
<path d="M115.374 248.683L115.516 248.543L116.192 247.872L115.852 247.529L117.206 246.186L117.546 246.529L118.9 245.186L118.559 244.843L119.913 243.5L120.253 243.843L121.607 242.5L121.266 242.157L122.62 240.814L122.96 241.157L124.314 239.814L123.973 239.471L125.327 238.128L125.667 238.471L127.021 237.128L126.68 236.785L128.034 235.442L128.374 235.785L129.728 234.442L129.388 234.099L130.741 232.756L131.081 233.099L132.435 231.756L132.095 231.413L133.448 230.07L133.789 230.413L135.142 229.071L134.802 228.727L136.155 227.385L136.496 227.728L137.849 226.385L137.509 226.042L138.862 224.699L139.203 225.042L140.556 223.699L140.216 223.356L141.569 222.013L141.91 222.356L142.587 221.684C142.781 221.492 142.997 221.315 143.231 221.158L142.962 220.756C143.471 220.415 144.05 220.161 144.652 220.029L144.755 220.501C145.026 220.442 145.299 220.411 145.571 220.411H146.588V219.928H148.624V220.411H150.659V219.928H152.694V220.411H154.73V219.928H156.765V220.411H158.801V219.928H160.836V220.411H162.872V219.928H164.907V220.411H166.942V219.928H168.978V220.411H171.013V219.928H173.049V220.411H174.066C174.354 220.411 174.633 220.438 174.902 220.489L174.992 220.014C175.62 220.133 176.2 220.37 176.709 220.704L176.444 221.108C176.912 221.414 177.313 221.81 177.623 222.273L178.024 222.004C178.364 222.51 178.606 223.089 178.728 223.714L178.253 223.806C178.305 224.074 178.332 224.353 178.332 224.64C178.332 224.927 178.305 225.205 178.253 225.473L178.728 225.565C178.606 226.191 178.364 226.769 178.024 227.276L177.623 227.007C177.313 227.469 176.912 227.865 176.444 228.172L176.709 228.576C176.2 228.909 175.62 229.147 174.992 229.266L174.902 228.791C174.633 228.842 174.354 228.869 174.066 228.869H173.12V229.352H171.227V228.869H169.334V229.352H167.441V228.869H165.548V229.352H163.655V228.869H161.762V229.352H159.869V228.869H157.977V229.352H156.084V228.869H154.191V229.352H152.298V228.869H150.405V229.352H148.512V228.869H147.565H147.366L147.225 229.009L146.548 229.68L146.889 230.023L145.535 231.366L145.195 231.023L143.841 232.366L144.182 232.709L142.828 234.052L142.488 233.709L141.134 235.052L141.474 235.395L140.121 236.738L139.781 236.395L138.427 237.738L138.767 238.081L137.414 239.424L137.073 239.081L135.72 240.424L136.06 240.767L134.707 242.11L134.366 241.767L133.013 243.11L133.353 243.453L132 244.796L131.659 244.452L130.306 245.795L130.646 246.138L129.293 247.481L128.952 247.138L127.599 248.481L127.939 248.824L126.585 250.167L126.245 249.824L124.892 251.167L125.232 251.51L123.878 252.853L123.538 252.51L122.184 253.853L122.525 254.196L121.171 255.539L120.831 255.196L120.154 255.867L120.145 255.876L120.137 255.886C119.945 256.097 119.739 256.28 119.52 256.436L119.801 256.829C119.296 257.189 118.724 257.427 118.096 257.542L118.009 257.067C117.742 257.116 117.462 257.141 117.17 257.141H116.22V257.624H114.32V257.141H112.42V257.624H110.521V257.141H108.621V257.624H106.721V257.141H104.821V257.624H102.922V257.141H101.022V257.624H99.1222V257.141H97.2225V257.624H95.3228V257.141H93.4231V257.624H91.5233V257.141H89.6236V257.624H87.7239V257.141H85.8241V257.624H83.9244V257.141H82.0247V257.624H80.125V257.141H79.1751C78.8876 257.141 78.6082 257.114 78.3392 257.063L78.2493 257.538C77.6219 257.419 77.0417 257.181 76.5328 256.848L76.7975 256.444C76.3295 256.138 75.929 255.742 75.6189 255.279L75.2174 255.548C74.8779 255.042 74.6353 254.463 74.5139 253.838L74.9884 253.746C74.9364 253.477 74.9091 253.199 74.9091 252.912C74.9091 252.625 74.9364 252.347 74.9884 252.079L74.5139 251.987C74.6353 251.361 74.8779 250.783 75.2174 250.276L75.6189 250.545C75.929 250.083 76.3295 249.687 76.7975 249.38L76.5328 248.976C77.0417 248.643 77.6219 248.405 78.2493 248.286L78.3392 248.761C78.6082 248.71 78.8876 248.683 79.1751 248.683H80.1751V248.2H82.1751V248.683H84.1751V248.2H86.1751V248.683H88.1752V248.2H90.1752V248.683H92.1752V248.2H94.1752V248.683H96.1752V248.2H98.1752V248.683H100.175V248.2H102.175V248.683H104.175V248.2H106.175V248.683H108.175V248.2H110.175V248.683H112.175V248.2H114.175V248.683H115.175H115.374Z" stroke="#EEEEEE" stroke-width="0.966574" stroke-dasharray="1.93 1.93"/>
<rect x="78.7765" y="270.673" width="37.6964" height="37.6964" rx="7.2493" transform="rotate(-180 78.7765 270.673)" fill="#111111" stroke="#EEEEEE" stroke-width="0.966574"/>
<rect x="38.1788" y="184.648" width="37.6964" height="37.6964" rx="7.2493" transform="rotate(-180 38.1788 184.648)" fill="#111111" stroke="#FFE629" stroke-width="0.966574"/>
<rect x="78.7765" y="100.556" width="37.6964" height="37.6964" rx="7.2493" transform="rotate(-180 78.7765 100.556)" fill="#111111" stroke="#EEEEEE" stroke-width="0.966574"/>
<path d="M202.393 319.002H198.942L249.288 221.423L249.757 220.515L248.758 220.728L211.812 228.631C211.328 227.917 211.038 227.494 210.748 227.072L210.747 227.071C210.457 226.648 210.168 226.226 209.683 225.512L259.788 147.807L260.419 146.83L259.281 147.073L221.841 155.075C221.282 154.177 221.022 153.748 220.712 153.236C220.49 152.868 220.241 152.458 219.837 151.8L342.706 0.998912H346.208L296.547 97.3007L296.079 98.2087L297.078 97.9947L333.264 90.2445C334.025 91.3446 334.299 91.7505 334.827 92.5328C334.985 92.7663 335.166 93.0334 335.389 93.3626L283.685 172.472L283.042 173.454L284.19 173.209L323.354 164.824L325.339 168.121L202.393 319.002Z" stroke="#FFE629" stroke-width="0.966574"/>
</svg>
