<svg width="63" height="62" viewBox="0 0 63 62" fill="none" xmlns="http://www.w3.org/2000/svg">
<path d="M53.2483 9.07876C47.3938 3.22426 39.6099 0 31.3305 0C23.0511 0 15.267 3.22413 9.41262 9.07876C3.55812 14.9333 0.333984 22.7171 0.333984 30.9965C0.333984 39.2759 3.55812 47.0599 9.41262 52.9144C21.5262 65.0277 41.1333 65.0292 53.2484 52.9144C65.3617 40.801 65.3633 21.1938 53.2483 9.07876ZM31.3305 59.5133C15.6063 59.5133 2.81371 46.7207 2.81371 30.9965C2.81371 15.2724 15.6063 2.47972 31.3305 2.47972C47.0547 2.47972 59.8473 15.2724 59.8473 30.9965C59.8473 46.7207 47.0547 59.5133 31.3305 59.5133Z" fill="#FFE629"/>
<path d="M31.3312 8.67969C19.0252 8.67969 9.01367 18.6912 9.01367 30.9972C9.01367 43.3029 19.0252 53.3147 31.3312 53.3147C43.637 53.3147 53.6487 43.3031 53.6487 30.9972C53.6487 18.6913 43.637 8.67969 31.3312 8.67969ZM31.3312 50.835C20.3925 50.835 11.4934 41.9359 11.4934 30.9972C11.4934 20.0586 20.3925 11.1594 31.3312 11.1594C42.2698 11.1594 51.169 20.0586 51.169 30.9972C51.169 41.9357 42.2697 50.835 31.3312 50.835Z" fill="#FFE629"/>
<path d="M31.3299 17.3574C23.8096 17.3574 17.6914 23.4756 17.6914 30.9959C17.6914 38.5161 23.8096 44.6344 31.3299 44.6344C38.8501 44.6344 44.9683 38.5161 44.9683 30.9959C44.9683 23.4756 38.8501 17.3574 31.3299 17.3574ZM31.3299 42.1546C25.1769 42.1546 20.1711 37.1488 20.1711 30.9959C20.1711 24.843 25.1769 19.8371 31.3299 19.8371C37.4828 19.8371 42.4886 24.843 42.4886 30.9959C42.4886 37.1488 37.4828 42.1546 31.3299 42.1546Z" fill="#FFE629"/>
<path d="M31.3305 26.0371C28.5958 26.0371 26.3711 28.2619 26.3711 30.9966C26.3711 33.7311 28.5958 35.956 31.3305 35.956C34.0652 35.956 36.29 33.7312 36.29 30.9966C36.29 28.2619 34.0651 26.0371 31.3305 26.0371ZM31.3305 33.4763C29.9632 33.4763 28.8508 32.3639 28.8508 30.9966C28.8508 29.6292 29.9632 28.5168 31.3305 28.5168C32.6979 28.5168 33.8103 29.6292 33.8103 30.9966C33.8103 32.3639 32.6979 33.4763 31.3305 33.4763Z" fill="#FFE629"/>
</svg>
